<svg width="30" height="30" viewBox="0 0 30 30" fill="none" xmlns="http://www.w3.org/2000/svg">
<path d="M11.1111 11H9.55556C9.143 11 8.74733 11.1686 8.45561 11.4686C8.16389 11.7687 8 12.1757 8 12.6V19H9.55556V15.8H11.1111V19H12.6667V12.6C12.6667 12.1757 12.5028 11.7687 12.2111 11.4686C11.9193 11.1686 11.5237 11 11.1111 11ZM11.1111 14.2H9.55556V12.6H11.1111M16.5556 11H13.4444V19H15V15.8H16.5556C16.9681 15.8 17.3638 15.6314 17.6555 15.3314C17.9472 15.0313 18.1111 14.6243 18.1111 14.2V12.6C18.1111 12.1757 17.9472 11.7687 17.6555 11.4686C17.3638 11.1686 16.9681 11 16.5556 11ZM16.5556 14.2H15V12.6H16.5556M21.2222 12.6V17.4H22V19H18.8889V17.4H19.6667V12.6H18.8889V11H22V12.6H21.2222Z" fill="#FBD38D"/>
<circle cx="15" cy="15" r="14.4" stroke="#FBD38D" stroke-width="1.2"/>
</svg>
