<svg width="32" height="32" viewBox="0 0 32 32" fill="none" xmlns="http://www.w3.org/2000/svg">
<path d="M10.8889 25C10.3694 25 9.92493 24.7921 9.55533 24.3763C9.18574 23.9605 9.00063 23.4601 9 22.875C8.99937 22.2899 9.18448 21.7898 9.55533 21.3747C9.92619 20.9596 10.3707 20.7514 10.8889 20.75C11.4071 20.7486 11.8519 20.9568 12.2234 21.3747C12.5949 21.7926 12.7797 22.2927 12.7778 22.875C12.7759 23.4572 12.5911 23.9577 12.2234 24.3763C11.8557 24.7949 11.4109 25.0028 10.8889 25ZM10.8889 18.625C10.3694 18.625 9.92493 18.4171 9.55533 18.0013C9.18574 17.5855 9.00063 17.0851 9 16.5C8.99937 15.9149 9.18448 15.4148 9.55533 14.9997C9.92619 14.5847 10.3707 14.3764 10.8889 14.375C11.4071 14.3736 11.8519 14.5818 12.2234 14.9997C12.5949 15.4177 12.7797 15.9177 12.7778 16.5C12.7759 17.0822 12.5911 17.5827 12.2234 18.0013C11.8557 18.4199 11.4109 18.6278 10.8889 18.625ZM10.8889 12.25C10.3694 12.25 9.92493 12.0421 9.55533 11.6263C9.18574 11.2105 9.00063 10.7101 9 10.125C8.99937 9.53992 9.18448 9.03984 9.55533 8.62476C9.92619 8.20967 10.3707 8.00142 10.8889 8.00001C11.4071 7.99859 11.8519 8.20684 12.2234 8.62476C12.5949 9.04267 12.7797 9.54275 12.7778 10.125C12.7759 10.7073 12.5911 11.2077 12.2234 11.6263C11.8557 12.0449 11.4109 12.2528 10.8889 12.25ZM16.5556 12.25C16.0361 12.25 15.5916 12.0421 15.222 11.6263C14.8524 11.2105 14.6673 10.7101 14.6667 10.125C14.666 9.53992 14.8511 9.03984 15.222 8.62476C15.5929 8.20967 16.0374 8.00142 16.5556 8.00001C17.0737 7.99859 17.5186 8.20684 17.8901 8.62476C18.2615 9.04267 18.4463 9.54275 18.4444 10.125C18.4426 10.7073 18.2578 11.2077 17.8901 11.6263C17.5223 12.0449 17.0775 12.2528 16.5556 12.25ZM22.2222 12.25C21.7028 12.25 21.2583 12.0421 20.8887 11.6263C20.5191 11.2105 20.334 10.7101 20.3333 10.125C20.3327 9.53992 20.5178 9.03984 20.8887 8.62476C21.2595 8.20967 21.704 8.00142 22.2222 8.00001C22.7404 7.99859 23.1852 8.20684 23.5567 8.62476C23.9282 9.04267 24.113 9.54275 24.1111 10.125C24.1092 10.7073 23.9244 11.2077 23.5567 11.6263C23.189 12.0449 22.7442 12.2528 22.2222 12.25ZM16.5556 18.625C16.0361 18.625 15.5916 18.4171 15.222 18.0013C14.8524 17.5855 14.6673 17.0851 14.6667 16.5C14.666 15.9149 14.8511 15.4148 15.222 14.9997C15.5929 14.5847 16.0374 14.3764 16.5556 14.375C17.0737 14.3736 17.5186 14.5818 17.8901 14.9997C18.2615 15.4177 18.4463 15.9177 18.4444 16.5C18.4426 17.0822 18.2578 17.5827 17.8901 18.0013C17.5223 18.4199 17.0775 18.6278 16.5556 18.625ZM17.5 23.9375V22.1844C17.5 22.0427 17.5236 21.9056 17.5708 21.7732C17.6181 21.6407 17.6889 21.521 17.7833 21.414L22.718 15.8891C22.8597 15.7297 23.0171 15.6146 23.1903 15.5437C23.3634 15.4729 23.5366 15.4375 23.7097 15.4375C23.8986 15.4375 24.0796 15.4775 24.2528 15.5576C24.4259 15.6376 24.5833 15.7569 24.725 15.9156L25.5986 16.8984C25.7245 17.0578 25.8231 17.2349 25.8942 17.4297C25.9654 17.6245 26.0006 17.8193 26 18.014C25.9994 18.2088 25.9679 18.4082 25.9055 18.6122C25.8432 18.8162 25.7409 18.9976 25.5986 19.1562L20.6875 24.6812C20.5931 24.7875 20.487 24.8672 20.3692 24.9203C20.2515 24.9734 20.1293 25 20.0028 25H18.4444C18.1768 25 17.9527 24.8983 17.772 24.695C17.5913 24.4917 17.5006 24.2392 17.5 23.9375ZM23.7097 19.05L24.5833 18.014L23.7097 17.0312L22.8125 18.0406L23.7097 19.05Z" fill="#fbd38d"/>
<circle cx="16" cy="16" r="15.25" stroke="#fbd38d" stroke-width="1.5"/>
</svg>
