<svg width="80" height="80" viewBox="0 0 80 80" fill="none" xmlns="http://www.w3.org/2000/svg">
<circle cx="40" cy="40" r="38" stroke="#EAB308" stroke-width="4"/>
<path d="M43.9683 35.045C44.9893 34.6904 46.0625 34.5096 47.1433 34.51C48.2333 34.51 49.2817 34.6917 50.26 35.025M50.26 35.025C53.99 36.3 56.6667 39.8017 56.6667 43.9217C56.6667 49.12 52.4033 53.3333 47.1433 53.3333H30.4767C26.5317 53.3333 23.3333 50.1733 23.3333 46.275C23.3333 42.3767 26.5317 39.2167 30.4767 39.215C30.941 39.2156 31.4041 39.2602 31.86 39.3483M50.26 35.025C49.7283 30.3233 45.6933 26.6667 40.7933 26.6667C35.5333 26.6667 31.27 30.88 31.27 36.0783C31.2695 37.1949 31.4693 38.3024 31.86 39.3483M31.86 39.3483C32.782 39.5279 33.6598 39.8869 34.4433 40.405" stroke="#EAB308" stroke-width="1.5" stroke-linecap="round"/>
</svg>
