<svg width="80" height="80" viewBox="0 0 80 80" fill="none" xmlns="http://www.w3.org/2000/svg">
<circle cx="40" cy="40" r="38" stroke="#EAB308" stroke-width="4"/>
<path d="M36.8648 43.9017L35.6705 42.4022C35.8762 41.9638 36.0203 41.4775 36.1029 40.9434C36.1854 40.4077 36.2267 39.8545 36.2267 39.2838C36.2267 38.713 36.179 38.1605 36.0838 37.6265C35.9886 37.0924 35.8387 36.6252 35.6343 36.225L36.8286 34.7136C37.1892 35.3163 37.4597 36.0226 37.64 36.8325C37.8203 37.6424 37.9111 38.4595 37.9124 39.2838C37.9137 40.108 37.8292 40.9307 37.659 41.7518C37.4902 42.5728 37.2254 43.2895 36.8648 43.9017ZM40.5829 48.5388L39.3771 47.025C40.1225 45.8771 40.6686 44.6415 41.0152 43.3182C41.3644 41.9933 41.539 40.6333 41.539 39.2383C41.539 37.8433 41.3651 36.4857 41.0171 35.1656C40.6679 33.8455 40.1213 32.6274 39.3771 31.5114L40.5829 30C41.4667 31.3217 42.1276 32.7773 42.5657 34.3669C43.0038 35.9564 43.2229 37.5802 43.2229 39.2383C43.2229 40.8964 43.0038 42.5226 42.5657 44.1169C42.1276 45.7113 41.4667 47.1852 40.5829 48.5388ZM26.6667 40.4341C25.8629 40.4341 25.186 40.0881 24.6362 39.3961C24.0851 38.7058 23.8095 37.856 23.8095 36.8468C23.8095 35.8376 24.0851 34.9878 24.6362 34.2975C25.1873 33.6072 25.8641 33.2612 26.6667 33.2596C27.4692 33.258 28.146 33.604 28.6971 34.2975C29.2483 34.9878 29.5238 35.8376 29.5238 36.8468C29.5238 37.856 29.2483 38.7058 28.6971 39.3961C28.146 40.0865 27.4692 40.4325 26.6667 40.4341ZM20 50V49.5911C20 48.9103 20.1575 48.3012 20.4724 47.764C20.7873 47.2283 21.2127 46.8074 21.7486 46.5013C22.5003 46.0612 23.2876 45.7376 24.1105 45.5303C24.9371 45.3215 25.7892 45.217 26.6667 45.217C27.5441 45.217 28.3956 45.3207 29.221 45.5279C30.0463 45.7384 30.8349 46.0628 31.5867 46.5013C32.12 46.8074 32.5448 47.2283 32.861 47.764C33.1759 48.3012 33.3333 48.9103 33.3333 49.5911V50H20ZM53.3333 40.4341C52.5295 40.4341 51.8527 40.0881 51.3029 39.3961C50.7517 38.7058 50.4762 37.856 50.4762 36.8468C50.4762 35.8376 50.7517 34.9878 51.3029 34.2975C51.854 33.6072 52.5308 33.2612 53.3333 33.2596C54.1359 33.258 54.8127 33.604 55.3638 34.2975C55.9149 34.9878 56.1905 35.8376 56.1905 36.8468C56.1905 37.856 55.9149 38.7058 55.3638 39.3961C54.8127 40.0865 54.1359 40.4325 53.3333 40.4341ZM46.6667 50V49.5911C46.6667 48.9103 46.8241 48.3012 47.139 47.764C47.454 47.2283 47.8794 46.8074 48.4152 46.5013C49.167 46.0612 49.9543 45.7376 50.7771 45.5303C51.6025 45.3215 52.4546 45.217 53.3333 45.217C54.2121 45.217 55.0635 45.3207 55.8876 45.5279C56.713 45.7384 57.5016 46.0628 58.2533 46.5013C58.7867 46.8074 59.2114 47.2283 59.5276 47.764C59.8425 48.3012 60 48.9103 60 49.5911V50H46.6667Z" fill="#EAB308"/>
</svg>
