<svg width="80" height="80" viewBox="0 0 80 80" fill="none" xmlns="http://www.w3.org/2000/svg">
<path d="M39.9199 0C24.896 0 11.8008 8.2903 4.97807 20.5753H14.2375L17.3197 14.6326H38.6528C39.0312 13.8811 39.65 13.2533 40.3552 12.8001C41.5155 12.0544 42.9682 11.6616 44.5435 11.6616C46.1187 11.6616 47.5716 12.0544 48.7319 12.8001C49.8922 13.5458 50.8237 14.7621 50.8237 16.23C50.8237 17.6979 49.8921 18.9143 48.7319 19.66C47.5718 20.4056 46.1187 20.7984 44.5435 20.7984C42.9684 20.7984 41.5155 20.4056 40.3552 19.66C39.65 19.2068 39.0308 18.579 38.6524 17.8271H19.3675L17.9424 20.5751H27.5906V23.7699H3.38635C2.98626 24.6727 2.62023 25.5892 2.28899 26.5175H9.09666V29.7121H1.29823C0.560647 32.5 0.117101 35.4083 0 38.4028H20.2317L23.3143 29.489H30.673V32.6834H25.7025L23.7245 38.4028H32.4875C32.8661 37.6511 33.4851 37.0231 34.1903 36.57C35.3506 35.8243 36.8035 35.4315 38.3786 35.4315C39.9538 35.4315 41.4067 35.8243 42.567 36.57C43.7273 37.3156 44.6594 38.532 44.6594 39.9999C44.6594 41.4678 43.7273 42.6842 42.567 43.4298C41.4067 44.1755 39.954 44.5683 38.3786 44.5683C36.8035 44.5683 35.3506 44.1755 34.1903 43.4298C33.4851 42.9767 32.8661 42.3489 32.4875 41.597H14.8598L19.3675 50.2877H33.7552V53.4823H17.3195L11.1548 41.597H0C0.297171 49.1984 2.70473 56.2452 6.65209 62.1727H23.2406C23.619 61.421 24.2385 60.793 24.9437 60.3399C26.1041 59.5942 27.5564 59.2014 29.1317 59.2014C30.7071 59.2014 32.1598 59.5942 33.3201 60.3399C34.4804 61.0855 35.4123 62.3019 35.4123 63.7698C35.4123 65.2377 34.4804 66.4541 33.3201 67.1997C32.1598 67.9454 30.7069 68.3382 29.1317 68.3382C27.5566 68.3382 26.1041 67.9454 24.9437 67.1997C24.2385 66.7466 23.6194 66.1188 23.241 65.3673H21.4395L25.395 71.0862H38.8962L41.9784 65.1436H49.167V68.3382H44.0264L42.6009 71.0863H52.2492V74.2809H23.6217L17.4568 65.3673H9.01546C16.3453 74.3077 27.4706 80 39.9201 80C56.921 80 71.4529 69.3847 77.2194 54.3771C76.3205 56.242 75.2364 57.8105 73.9207 58.973C72.5928 60.146 70.9637 60.9102 69.2021 60.9102C67.4404 60.9102 65.8111 60.146 64.4831 58.973C63.1552 57.7997 62.0628 56.2136 61.159 54.3258C59.3513 50.5501 58.2983 45.5323 58.2983 39.9999C58.2983 34.4675 59.3513 29.4496 61.159 25.6742C62.063 23.7862 63.1552 22.2001 64.4832 21.0269C65.8113 19.8536 67.4402 19.0897 69.2021 19.0897C70.9637 19.0897 72.5928 19.8538 73.9207 21.0269C75.2364 22.1893 76.3205 23.7578 77.2194 25.6228C71.4529 10.6151 56.921 0 39.9199 0ZM44.5435 14.8562C43.5653 14.8562 42.706 15.1283 42.1931 15.4579C41.6801 15.7875 41.5766 16.057 41.5766 16.23C41.5766 16.4031 41.6801 16.6724 42.1931 17.0021C42.7062 17.3318 43.5653 17.6039 44.5435 17.6039C45.5218 17.6039 46.3809 17.3318 46.8938 17.0021C47.4068 16.6725 47.5099 16.4031 47.5099 16.23C47.5099 16.057 47.4068 15.7877 46.8938 15.4579C46.3809 15.1281 45.5218 14.8562 44.5435 14.8562ZM73.8255 29.6665C71.6901 29.6665 70.1252 31.2295 69.1544 33.101C68.1835 34.9725 67.6514 37.368 67.6514 39.9999C67.6514 42.6318 68.1837 45.0271 69.1546 46.8986C70.1253 48.7703 71.6899 50.3335 73.8255 50.3335C75.9611 50.3335 77.526 48.7703 78.4968 46.8986C79.4677 45.0269 80 42.632 80 39.9999C80 37.3678 79.4677 34.9727 78.4968 33.1012C77.526 31.2295 75.9609 29.6665 73.8255 29.6665ZM74.6749 33.2442C74.9614 33.51 75.2753 33.9132 75.5826 34.5055C76.2568 35.8055 76.7424 37.7922 76.7424 39.9999C76.7424 42.2076 76.2568 44.1941 75.5824 45.4943C74.908 46.7944 74.2004 47.1929 73.8255 47.1929C73.4506 47.1929 72.7429 46.7943 72.0685 45.4943C71.394 44.1943 70.9091 42.2076 70.9091 39.9999C70.9091 39.955 70.9105 39.9108 70.9109 39.8661C71.343 40.1928 71.8233 40.3639 72.3109 40.3648C73.1146 40.3648 73.8853 39.9031 74.4535 39.0815C75.0217 38.2598 75.341 37.1454 75.341 35.9834C75.3407 34.9874 75.1058 34.0213 74.6749 33.2442ZM38.3786 38.6259C37.4004 38.6259 36.5417 38.8982 36.0287 39.2278C35.5156 39.5576 35.4123 39.8269 35.4123 39.9999C35.4123 40.173 35.5156 40.4422 36.0287 40.772C36.5418 41.1018 37.4004 41.3737 38.3786 41.3737C39.3571 41.3737 40.2162 41.1016 40.7291 40.772C41.2421 40.4424 41.3456 40.173 41.3456 39.9999C41.3456 39.8269 41.2421 39.5576 40.7291 39.2278C40.2162 38.898 39.3571 38.6259 38.3786 38.6259ZM29.1317 62.396C28.1533 62.396 27.2946 62.6681 26.7816 62.9977C26.2687 63.3273 26.1652 63.5967 26.1652 63.7698C26.1652 63.9428 26.2687 64.2121 26.7816 64.5419C27.2946 64.8717 28.1533 65.1436 29.1317 65.1436C30.1102 65.1436 30.9691 64.8715 31.482 64.5419C31.995 64.2123 32.0985 63.9428 32.0985 63.7698C32.0985 63.5967 31.9952 63.3275 31.482 62.9977C30.9689 62.6679 30.11 62.396 29.1317 62.396Z" fill="#EAB308"/>
</svg>
