<svg width="30" height="30" viewBox="0 0 30 30" fill="none" xmlns="http://www.w3.org/2000/svg">
<path d="M21.125 10H18.5V9.2C18.5 8.35131 18.1313 7.53737 17.4749 6.93726C16.8185 6.33714 15.9283 6 15 6C14.0717 6 13.1815 6.33714 12.5251 6.93726C11.8687 7.53737 11.5 8.35131 11.5 9.2V10H8.875C8.64294 10 8.42038 10.0843 8.25628 10.2343C8.09219 10.3843 8 10.5878 8 10.8V19.6C8 20.2365 8.27656 20.847 8.76884 21.2971C9.26113 21.7471 9.92881 22 10.625 22H19.375C20.0712 22 20.7389 21.7471 21.2312 21.2971C21.7234 20.847 22 20.2365 22 19.6V10.8C22 10.5878 21.9078 10.3843 21.7437 10.2343C21.5796 10.0843 21.3571 10 21.125 10ZM13.25 9.2C13.25 8.77565 13.4344 8.36869 13.7626 8.06863C14.0908 7.76857 14.5359 7.6 15 7.6C15.4641 7.6 15.9092 7.76857 16.2374 8.06863C16.5656 8.36869 16.75 8.77565 16.75 9.2V10H13.25V9.2ZM20.25 19.6C20.25 19.8122 20.1578 20.0157 19.9937 20.1657C19.8296 20.3157 19.6071 20.4 19.375 20.4H10.625C10.3929 20.4 10.1704 20.3157 10.0063 20.1657C9.84219 20.0157 9.75 19.8122 9.75 19.6V11.6H11.5V12.4C11.5 12.6122 11.5922 12.8157 11.7563 12.9657C11.9204 13.1157 12.1429 13.2 12.375 13.2C12.6071 13.2 12.8296 13.1157 12.9937 12.9657C13.1578 12.8157 13.25 12.6122 13.25 12.4V11.6H16.75V12.4C16.75 12.6122 16.8422 12.8157 17.0063 12.9657C17.1704 13.1157 17.3929 13.2 17.625 13.2C17.8571 13.2 18.0796 13.1157 18.2437 12.9657C18.4078 12.8157 18.5 12.6122 18.5 12.4V11.6H20.25V19.6Z" fill="#FBD38D"/>
<circle cx="15" cy="15" r="14.4" stroke="#FBD38D" stroke-width="1.2"/>
</svg>
