<svg width="30" height="30" viewBox="0 0 30 30" fill="none" xmlns="http://www.w3.org/2000/svg">
<path d="M11.1111 12H8.77778C8.5715 12 8.37367 12.079 8.22781 12.2197C8.08194 12.3603 8 12.5511 8 12.75V14.25C8 14.4489 8.08194 14.6397 8.22781 14.7803C8.37367 14.921 8.5715 15 8.77778 15H10.3333C10.5396 15 10.7374 15.079 10.8833 15.2197C11.0292 15.3603 11.1111 15.5511 11.1111 15.75V17.25C11.1111 17.4489 11.0292 17.6397 10.8833 17.7803C10.7374 17.921 10.5396 18 10.3333 18H8M16.5556 18H13.4444V12H16.5556M14.2222 15H15.7778M18.8889 12.75C18.8889 12.5511 18.9708 12.3603 19.1167 12.2197C19.2626 12.079 19.4604 12 19.6667 12H21.2222C21.4285 12 21.6263 12.079 21.7722 12.2197C21.9181 12.3603 22 12.5511 22 12.75V17.25C22 17.4489 21.9181 17.6397 21.7722 17.7803C21.6263 17.921 21.4285 18 21.2222 18H19.6667C19.4604 18 19.2626 17.921 19.1167 17.7803C18.9708 17.6397 18.8889 17.4489 18.8889 17.25V12.75Z" stroke="#FBD38D" stroke-width="2" stroke-linecap="round" stroke-linejoin="round"/>
<circle cx="15" cy="15" r="14.4" stroke="#FBD38D" stroke-width="1.2"/>
</svg>
