<svg width="74" height="15" viewBox="0 0 74 15" fill="none" xmlns="http://www.w3.org/2000/svg">
<path d="M20.212 10.74C20.512 10.74 20.764 10.704 20.968 10.632C21.172 10.56 21.334 10.464 21.454 10.344C21.578 10.224 21.666 10.084 21.718 9.924C21.774 9.764 21.802 9.594 21.802 9.414C21.802 9.226 21.772 9.058 21.712 8.91C21.652 8.758 21.558 8.63 21.43 8.526C21.302 8.418 21.136 8.336 20.932 8.28C20.732 8.224 20.49 8.196 20.206 8.196H18.58V10.74H20.212ZM18.58 4.572V7.08H19.864C20.416 7.08 20.832 6.98 21.112 6.78C21.396 6.58 21.538 6.262 21.538 5.826C21.538 5.374 21.41 5.052 21.154 4.86C20.898 4.668 20.498 4.572 19.954 4.572H18.58ZM19.954 3.324C20.522 3.324 21.008 3.378 21.412 3.486C21.816 3.594 22.146 3.748 22.402 3.948C22.662 4.148 22.852 4.39 22.972 4.674C23.092 4.958 23.152 5.278 23.152 5.634C23.152 5.838 23.122 6.034 23.062 6.222C23.002 6.406 22.908 6.58 22.78 6.744C22.656 6.904 22.496 7.05 22.3 7.182C22.108 7.314 21.878 7.426 21.61 7.518C22.802 7.786 23.398 8.43 23.398 9.45C23.398 9.818 23.328 10.158 23.188 10.47C23.048 10.782 22.844 11.052 22.576 11.28C22.308 11.504 21.978 11.68 21.586 11.808C21.194 11.936 20.746 12 20.242 12H16.966V3.324H19.954ZM29.829 5.844V12H28.923C28.727 12 28.603 11.91 28.551 11.73L28.449 11.238C28.197 11.494 27.919 11.702 27.615 11.862C27.311 12.018 26.953 12.096 26.541 12.096C26.205 12.096 25.907 12.04 25.647 11.928C25.391 11.812 25.175 11.65 24.999 11.442C24.823 11.234 24.689 10.988 24.597 10.704C24.509 10.416 24.465 10.1 24.465 9.756V5.844H25.947V9.756C25.947 10.132 26.033 10.424 26.205 10.632C26.381 10.836 26.643 10.938 26.991 10.938C27.247 10.938 27.487 10.882 27.711 10.77C27.935 10.654 28.147 10.496 28.347 10.296V5.844H29.829ZM32.7804 3.084V8.19H33.0564C33.1564 8.19 33.2344 8.178 33.2904 8.154C33.3504 8.126 33.4104 8.072 33.4704 7.992L35.0004 6.102C35.0644 6.018 35.1344 5.954 35.2104 5.91C35.2904 5.866 35.3924 5.844 35.5164 5.844H36.8724L34.9584 8.13C34.8224 8.31 34.6744 8.448 34.5144 8.544C34.5984 8.604 34.6724 8.674 34.7364 8.754C34.8044 8.834 34.8684 8.92 34.9284 9.012L36.9804 12H35.6424C35.5264 12 35.4264 11.982 35.3424 11.946C35.2584 11.906 35.1884 11.836 35.1324 11.736L33.5604 9.402C33.5044 9.31 33.4464 9.25 33.3864 9.222C33.3264 9.194 33.2364 9.18 33.1164 9.18H32.7804V12H31.2984V3.084H32.7804ZM40.9606 9.372C40.5326 9.392 40.1726 9.43 39.8806 9.486C39.5886 9.538 39.3546 9.606 39.1786 9.69C39.0026 9.774 38.8766 9.872 38.8006 9.984C38.7246 10.096 38.6866 10.218 38.6866 10.35C38.6866 10.61 38.7626 10.796 38.9146 10.908C39.0706 11.02 39.2726 11.076 39.5206 11.076C39.8246 11.076 40.0866 11.022 40.3066 10.914C40.5306 10.802 40.7486 10.634 40.9606 10.41V9.372ZM37.5646 6.702C38.2726 6.054 39.1246 5.73 40.1206 5.73C40.4806 5.73 40.8026 5.79 41.0866 5.91C41.3706 6.026 41.6106 6.19 41.8066 6.402C42.0026 6.61 42.1506 6.86 42.2506 7.152C42.3546 7.444 42.4066 7.764 42.4066 8.112V12H41.7346C41.5946 12 41.4866 11.98 41.4106 11.94C41.3346 11.896 41.2746 11.81 41.2306 11.682L41.0986 11.238C40.9426 11.378 40.7906 11.502 40.6426 11.61C40.4946 11.714 40.3406 11.802 40.1806 11.874C40.0206 11.946 39.8486 12 39.6646 12.036C39.4846 12.076 39.2846 12.096 39.0646 12.096C38.8046 12.096 38.5646 12.062 38.3446 11.994C38.1246 11.922 37.9346 11.816 37.7746 11.676C37.6146 11.536 37.4906 11.362 37.4026 11.154C37.3146 10.946 37.2706 10.704 37.2706 10.428C37.2706 10.272 37.2966 10.118 37.3486 9.966C37.4006 9.81 37.4846 9.662 37.6006 9.522C37.7206 9.382 37.8746 9.25 38.0626 9.126C38.2506 9.002 38.4806 8.894 38.7526 8.802C39.0286 8.71 39.3486 8.636 39.7126 8.58C40.0766 8.52 40.4926 8.484 40.9606 8.472V8.112C40.9606 7.7 40.8726 7.396 40.6966 7.2C40.5206 7 40.2666 6.9 39.9346 6.9C39.6946 6.9 39.4946 6.928 39.3346 6.984C39.1786 7.04 39.0406 7.104 38.9206 7.176C38.8006 7.244 38.6906 7.306 38.5906 7.362C38.4946 7.418 38.3866 7.446 38.2666 7.446C38.1626 7.446 38.0746 7.42 38.0026 7.368C37.9306 7.312 37.8726 7.248 37.8286 7.176L37.5646 6.702ZM43.7543 7.758H46.8623V8.994H43.7543V7.758ZM56.2169 7.662C56.2169 8.298 56.1109 8.882 55.8989 9.414C55.6869 9.946 55.3889 10.404 55.0049 10.788C54.6209 11.172 54.1589 11.47 53.6189 11.682C53.0789 11.894 52.4789 12 51.8189 12H48.5129V3.324H51.8189C52.4789 3.324 53.0789 3.432 53.6189 3.648C54.1589 3.86 54.6209 4.158 55.0049 4.542C55.3889 4.922 55.6869 5.378 55.8989 5.91C56.1109 6.442 56.2169 7.026 56.2169 7.662ZM54.5609 7.662C54.5609 7.186 54.4969 6.76 54.3689 6.384C54.2449 6.004 54.0629 5.684 53.8229 5.424C53.5869 5.16 53.2989 4.958 52.9589 4.818C52.6229 4.678 52.2429 4.608 51.8189 4.608H50.1329V10.716H51.8189C52.2429 10.716 52.6229 10.646 52.9589 10.506C53.2989 10.366 53.5869 10.166 53.8229 9.906C54.0629 9.642 54.2449 9.322 54.3689 8.946C54.4969 8.566 54.5609 8.138 54.5609 7.662ZM61.2918 8.214C61.2918 8.022 61.2638 7.842 61.2078 7.674C61.1558 7.502 61.0758 7.352 60.9678 7.224C60.8598 7.096 60.7218 6.996 60.5538 6.924C60.3898 6.848 60.1978 6.81 59.9778 6.81C59.5498 6.81 59.2118 6.932 58.9638 7.176C58.7198 7.42 58.5638 7.766 58.4958 8.214H61.2918ZM58.4658 9.108C58.4898 9.424 58.5458 9.698 58.6338 9.93C58.7218 10.158 58.8378 10.348 58.9818 10.5C59.1258 10.648 59.2958 10.76 59.4918 10.836C59.6918 10.908 59.9118 10.944 60.1518 10.944C60.3918 10.944 60.5978 10.916 60.7698 10.86C60.9458 10.804 61.0978 10.742 61.2258 10.674C61.3578 10.606 61.4718 10.544 61.5678 10.488C61.6678 10.432 61.7638 10.404 61.8558 10.404C61.9798 10.404 62.0718 10.45 62.1318 10.542L62.5578 11.082C62.3938 11.274 62.2098 11.436 62.0058 11.568C61.8018 11.696 61.5878 11.8 61.3638 11.88C61.1438 11.956 60.9178 12.01 60.6858 12.042C60.4578 12.074 60.2358 12.09 60.0198 12.09C59.5918 12.09 59.1938 12.02 58.8258 11.88C58.4578 11.736 58.1378 11.526 57.8658 11.25C57.5938 10.97 57.3798 10.626 57.2238 10.218C57.0678 9.806 56.9897 9.33 56.9897 8.79C56.9897 8.37 57.0578 7.976 57.1938 7.608C57.3298 7.236 57.5238 6.914 57.7758 6.642C58.0318 6.366 58.3418 6.148 58.7058 5.988C59.0738 5.828 59.4878 5.748 59.9478 5.748C60.3358 5.748 60.6938 5.81 61.0218 5.934C61.3498 6.058 61.6318 6.24 61.8678 6.48C62.1038 6.716 62.2878 7.008 62.4198 7.356C62.5558 7.7 62.6237 8.094 62.6237 8.538C62.6237 8.762 62.5998 8.914 62.5518 8.994C62.5038 9.07 62.4118 9.108 62.2758 9.108H58.4658ZM69.1336 5.844L66.6916 12H65.3476L62.9056 5.844H64.1296C64.2416 5.844 64.3336 5.87 64.4056 5.922C64.4816 5.974 64.5316 6.04 64.5556 6.12L65.7436 9.408C65.8076 9.6 65.8636 9.788 65.9116 9.972C65.9596 10.156 66.0016 10.34 66.0376 10.524C66.0776 10.34 66.1216 10.156 66.1696 9.972C66.2176 9.788 66.2756 9.6 66.3436 9.408L67.5556 6.12C67.5836 6.04 67.6336 5.974 67.7056 5.922C67.7776 5.87 67.8636 5.844 67.9636 5.844H69.1336Z" fill="url(#paint0_linear_8_49)"/>
<rect x="0.5" y="0.5" width="14" height="14" rx="7" stroke="#FBD38D"/>
<g clip-path="url(#clip0_8_49)">
<mask id="mask0_8_49" style="mask-type:luminance" maskUnits="userSpaceOnUse" x="1" y="1" width="13" height="13">
<path d="M14 1H1V14H14V1Z" fill="white"/>
</mask>
<g mask="url(#mask0_8_49)">
<path d="M11.9667 30.3568C11.8207 30.0133 11.7507 29.8181 11.7916 29.6698C11.8464 29.4701 11.8126 29.2903 11.6943 28.983C11.5729 28.6673 12.0141 26.6307 11.9266 25.3687C11.8639 24.4674 11.6764 24.0638 11.7527 23.3C11.8608 22.2175 11.6962 19.4787 11.5044 18.132C11.3729 17.2093 11.1203 16.808 10.8091 16.2648C10.5087 15.7405 10.281 15.0475 10.2643 14.867C10.1429 13.5532 10.8997 13.7615 10.9791 12.8803C11.1106 11.4186 11.0075 10.1726 10.7067 9.76902C10.5075 9.50128 10.1472 9.33322 9.79582 9.26581C9.42149 9.19392 9.11176 9.07028 8.9896 8.92234C8.68103 8.54917 8.65574 8.22742 8.67831 7.77597C8.70088 7.32452 8.42344 7.14017 7.88413 7.14017C7.34482 7.14017 7.0674 7.32484 7.08997 7.77597C7.11254 8.22711 7.08723 8.54917 6.77868 8.92234C6.6565 9.06995 6.34715 9.19392 5.97243 9.26581C5.62147 9.33322 5.26114 9.5016 5.06153 9.76902C4.76075 10.1726 4.65765 11.4183 4.78916 12.8803C4.86815 13.7615 5.62535 13.5532 5.50395 14.867C5.48722 15.0475 5.2596 15.7405 4.9592 16.2648C4.64791 16.808 4.39538 17.2096 4.26387 18.132C4.07203 19.4787 3.90745 22.2178 4.01561 23.3C4.09187 24.0638 3.90433 24.4674 3.84168 25.3687C3.75413 26.6307 4.19539 28.6676 4.07398 28.983C3.95568 29.2903 3.92183 29.4701 3.97671 29.6698C4.01756 29.8181 3.94752 30.0133 3.80161 30.3568C3.64167 30.7334 3.23739 31.1955 3.41249 31.483C3.60938 31.8064 3.91833 31.8984 4.95414 31.8785C5.65454 31.8267 5.61097 32.0223 6.31602 31.8428C6.84832 31.7074 6.30629 31.0041 6.01447 30.7367C5.63547 30.389 5.69618 30.1066 5.58878 29.8542C5.50707 29.6624 5.80746 29.4947 5.60122 29.0635C5.49889 28.8497 5.87984 26.3994 6.10824 25.1017C6.20746 24.5387 6.26388 24.0274 6.37089 23.3923C6.44832 23.1139 6.51058 22.7814 6.66156 22.3098C6.92187 21.4963 7.13938 20.4167 7.28062 19.0589C7.41214 18.8953 7.49931 18.7994 7.88375 18.7911C8.26818 18.7991 8.35534 18.895 8.48686 19.0589C8.62771 20.4167 8.84563 21.4963 9.10594 22.3098C9.25691 22.781 9.31916 23.1136 9.3966 23.3923C9.5036 24.0274 9.56002 24.5387 9.65925 25.1017C9.88804 26.3994 10.2686 28.8497 10.1663 29.0635C9.95964 29.4947 10.26 29.6624 10.1783 29.8542C10.0709 30.1069 10.1316 30.389 9.75263 30.7367C9.4608 31.0044 8.91877 31.7074 9.45108 31.8428C10.1561 32.0223 10.1126 31.8267 10.813 31.8785C11.8488 31.8984 12.1577 31.8067 12.3546 31.483C12.5297 31.1955 12.1254 30.7334 11.9655 30.3568H11.9667Z" fill="#AB9163"/>
<path d="M6.89383 8.80956C7.29229 9.00478 7.98879 8.78209 8.71175 8.06481C8.14405 8.1859 7.50785 8.14212 7.1024 8.03445C7.11329 8.27025 7.02691 8.57249 6.89383 8.80956Z" fill="#FFA886" fill-opacity="0.3"/>
<path d="M9.95924 32C9.82851 32 9.66702 31.9808 9.42345 31.9188C9.27908 31.8821 9.18375 31.8054 9.14717 31.6968C9.03667 31.3683 9.49543 30.8536 9.68142 30.683C9.93161 30.4536 9.97558 30.2577 10.0176 30.0686C10.0363 29.9852 10.0538 29.9065 10.0876 29.8273C10.1083 29.7791 10.0911 29.7293 10.0596 29.6452C10.0087 29.5088 9.93861 29.322 10.0764 29.0337C10.1518 28.8586 9.87209 26.8646 9.56352 25.1125C9.51176 24.8198 9.47247 24.5441 9.43045 24.2523C9.39232 23.9856 9.35262 23.7099 9.30127 23.4064C9.2748 23.3111 9.24989 23.2085 9.22344 23.1C9.17052 22.8833 9.11098 22.6379 9.01254 22.3299C8.73627 21.4663 8.52771 20.3748 8.39269 19.0858C8.28179 18.9476 8.21331 18.8781 7.88451 18.8709C7.55571 18.8781 7.48723 18.9476 7.37635 19.0858C7.24132 20.3748 7.03315 21.4663 6.75649 22.3299C6.65804 22.6379 6.59812 22.8836 6.5452 23.1002C6.51875 23.2085 6.49384 23.3111 6.46739 23.4064C6.41641 23.7101 6.37672 23.9858 6.3382 24.2523C6.29617 24.5441 6.25649 24.8198 6.20512 25.1125C5.89657 26.8646 5.61679 28.8586 5.69228 29.0337C5.83002 29.3216 5.76038 29.5085 5.709 29.6449C5.67749 29.729 5.66076 29.7788 5.68099 29.827C5.71484 29.9066 5.73235 29.9852 5.75104 30.0683C5.79345 30.2574 5.83703 30.453 6.08722 30.6826C6.27322 30.8533 6.73198 31.3681 6.62146 31.6964C6.58489 31.8051 6.48956 31.8818 6.34521 31.9185C5.91563 32.0277 5.74169 32.0041 5.54014 31.9767C5.40239 31.9577 5.24636 31.9367 4.96308 31.9575C4.96076 31.9575 4.95882 31.9575 4.95648 31.9575C3.89888 31.9779 3.5479 31.8833 3.32532 31.5179C3.17981 31.2789 3.35957 30.9664 3.53311 30.6641C3.60082 30.5462 3.66502 30.4348 3.70978 30.3296C3.85607 29.9849 3.91561 29.8104 3.88176 29.6865C3.81833 29.4554 3.86775 29.252 3.98137 28.9581C4.03001 28.8317 3.96659 28.3056 3.89926 27.7484C3.80861 26.9982 3.69615 26.0642 3.74479 25.363C3.7693 25.0102 3.81327 24.73 3.85219 24.4828C3.91249 24.0971 3.96503 23.7645 3.91911 23.3054C3.81211 22.2367 3.96891 19.5164 4.16736 18.1218C4.29382 17.2336 4.52768 16.8271 4.82379 16.3124L4.87127 16.2296C5.17475 15.7003 5.39227 15.0181 5.40706 14.8597C5.47438 14.1328 5.27243 13.9024 5.05881 13.6586C4.89616 13.4733 4.72807 13.2813 4.69226 12.8848C4.55725 11.3806 4.6697 10.1409 4.97865 9.72622C5.17359 9.46455 5.52768 9.26805 5.95027 9.1869C6.31563 9.11661 6.59539 9.00063 6.69813 8.87635C6.97829 8.53735 7.01642 8.25235 6.99267 7.77822C6.98101 7.54307 7.04403 7.36989 7.18606 7.24848C7.33509 7.12099 7.5635 7.05902 7.88413 7.05902C8.20476 7.05902 8.43316 7.12099 8.58219 7.24848C8.72382 7.36989 8.78725 7.54307 8.77558 7.77822C8.75183 8.25204 8.78997 8.53735 9.07013 8.87635C9.17286 9.00063 9.45262 9.11661 9.81799 9.1869C10.2406 9.26805 10.5947 9.46455 10.7896 9.72622C11.0986 10.1409 11.211 11.3809 11.076 12.8848C11.0402 13.2816 10.8721 13.4733 10.7094 13.6586C10.4958 13.9024 10.2939 14.1325 10.3612 14.8597C10.376 15.0181 10.5935 15.7 10.897 16.2296L10.9445 16.3124C11.2406 16.8271 11.4744 17.2336 11.6009 18.1218C11.7993 19.5164 11.9561 22.2367 11.8491 23.3054C11.8032 23.7645 11.8554 24.0974 11.9161 24.4828C11.955 24.73 11.999 25.0102 12.0235 25.363C12.0721 26.0642 11.9593 26.9979 11.869 27.7484C11.8017 28.3056 11.7382 28.8317 11.7869 28.9581C11.9001 29.2523 11.9495 29.4554 11.8865 29.6865C11.8526 29.8104 11.9122 29.9849 12.0585 30.3296C12.1032 30.4348 12.167 30.5462 12.2351 30.6641C12.4087 30.9664 12.5884 31.2789 12.4429 31.5179C12.2204 31.8833 11.8702 31.9779 10.8118 31.9575C10.8094 31.9575 10.8075 31.9575 10.8052 31.9575C10.5219 31.9364 10.3659 31.9575 10.2281 31.9767C10.141 31.9885 10.0589 31.9997 9.95886 31.9997L9.95924 32ZM7.88491 18.7109C7.88491 18.7109 7.88647 18.7109 7.88725 18.7109C8.3032 18.7196 8.42226 18.8314 8.56895 19.0145C8.57791 19.0256 8.58335 19.0384 8.58452 19.0515C8.71838 20.3404 8.92577 21.4296 9.20047 22.289C9.30049 22.6015 9.36079 22.8497 9.41411 23.0682C9.44056 23.1769 9.46546 23.2798 9.49192 23.3737C9.4927 23.376 9.49309 23.3782 9.49348 23.3805C9.54523 23.6872 9.58493 23.9648 9.62344 24.2333C9.66508 24.5239 9.70477 24.7988 9.75575 25.0891C9.76235 25.1263 10.4021 28.7893 10.2569 29.0915C10.1437 29.3277 10.1974 29.4711 10.2448 29.5977C10.2799 29.6913 10.3129 29.7795 10.2705 29.8794C10.2417 29.9472 10.2254 30.0201 10.2083 30.097C10.1635 30.2979 10.1126 30.5261 9.82539 30.789C9.5748 31.0191 9.26429 31.4476 9.33356 31.6536C9.35223 31.7095 9.39892 31.7451 9.48025 31.7658C9.86547 31.8638 10.004 31.8451 10.1958 31.8192C10.3445 31.799 10.513 31.7761 10.8188 31.7984C11.8554 31.8182 12.0997 31.7233 12.2682 31.4469C12.3713 31.2773 12.2122 31.0006 12.0585 30.7328C11.9916 30.6162 11.9223 30.4958 11.8741 30.3827C11.7309 30.0455 11.6476 29.8283 11.6958 29.6519C11.7437 29.4778 11.7196 29.3149 11.6009 29.0066C11.5429 28.8563 11.5888 28.4459 11.6748 27.733C11.7647 26.9882 11.8764 26.0614 11.8285 25.3725C11.8044 25.0255 11.7608 24.7483 11.7227 24.5036C11.6608 24.1089 11.6075 23.7683 11.655 23.2926C11.7612 22.2321 11.6048 19.5282 11.4071 18.1403C11.2845 17.2783 11.0565 16.8821 10.7682 16.3809L10.7207 16.2978C10.4137 15.762 10.1845 15.0603 10.167 14.8721C10.0943 14.0871 10.3266 13.8219 10.5515 13.5657C10.7052 13.3906 10.8503 13.2251 10.8818 12.8733C11.0122 11.4231 10.9083 10.1921 10.6235 9.80961C10.4581 9.58755 10.1402 9.41279 9.77363 9.3425C9.35573 9.2623 9.04056 9.12524 8.90903 8.96612C8.57051 8.55652 8.55963 8.19803 8.58101 7.77182C8.59036 7.58268 8.54484 7.44754 8.44172 7.35935C8.33121 7.26478 8.14872 7.21909 7.88413 7.21909C7.61953 7.21909 7.43705 7.26509 7.32653 7.35935C7.22342 7.44754 7.1779 7.58236 7.18724 7.77182C7.20863 8.19803 7.19775 8.55652 6.85921 8.96612C6.7277 9.12524 6.41251 9.2623 5.99462 9.3425C5.62807 9.41279 5.31018 9.58755 5.1448 9.80961C4.85998 10.1917 4.75609 11.4228 4.88643 12.8733C4.91794 13.2251 5.06309 13.3906 5.21679 13.5657C5.44169 13.8219 5.67399 14.0868 5.60122 14.8721C5.58372 15.0603 5.35454 15.762 5.04753 16.2978L5.00005 16.3809C4.71173 16.8825 4.48371 17.2783 4.36115 18.1403C4.16348 19.5282 4.00744 22.2321 4.11328 23.2926C4.16075 23.7683 4.10744 24.1092 4.04557 24.5036C4.00704 24.7483 3.96387 25.0255 3.93974 25.3725C3.89188 26.0614 4.00394 26.9882 4.09343 27.733C4.17942 28.4459 4.22534 28.8563 4.16736 29.0066C4.04868 29.3149 4.02455 29.4778 4.07242 29.6519C4.12066 29.8286 4.03739 30.046 3.8942 30.3827C3.84635 30.4958 3.77708 30.6162 3.70978 30.7328C3.55606 31.0006 3.39693 31.2773 3.50004 31.4469C3.66814 31.7233 3.91289 31.8182 4.94947 31.7984C5.2557 31.7761 5.4238 31.799 5.57243 31.8192C5.76426 31.8454 5.90239 31.8641 6.28801 31.7658C6.36933 31.7451 6.41563 31.7095 6.4347 31.6536C6.50434 31.4473 6.19383 31.0188 5.94286 30.789C5.65608 30.5261 5.60512 30.2979 5.55999 30.097C5.54286 30.0201 5.52652 29.9472 5.49773 29.8794C5.45531 29.7795 5.48838 29.6913 5.5234 29.5977C5.57087 29.4711 5.62457 29.3277 5.51135 29.0915C5.3666 28.7893 6.00629 25.1258 6.01251 25.0891C6.06389 24.7983 6.10318 24.5236 6.14481 24.2333C6.18333 23.9648 6.2234 23.6872 6.27478 23.3805C6.27516 23.3782 6.27556 23.376 6.27632 23.3737C6.30239 23.2798 6.3273 23.1772 6.35377 23.0687C6.40707 22.8497 6.46739 22.6019 6.56738 22.289C6.84248 21.4296 7.04949 20.3404 7.18334 19.0515C7.1849 19.0381 7.18996 19.0256 7.19891 19.0145C7.3456 18.8314 7.46506 18.7196 7.88063 18.7109C7.88141 18.7109 7.88219 18.7109 7.88297 18.7109H7.88491Z" fill="black"/>
<path d="M6.15644 9.22748C5.50429 9.37764 4.80428 9.29521 4.48327 9.99428C4.32451 10.34 4.36927 11.0956 4.04047 12.3027C3.93852 12.6781 3.64085 14.1171 3.42062 14.5894C2.85914 15.7913 2.69338 17.0972 2.36536 17.7045C2.11711 18.1639 1.90504 18.6557 1.97158 19.1023C2.04473 19.5937 2.60388 20.0806 2.72567 20.3445C2.87782 20.6743 3.27042 20.4525 3.28521 20.1011C3.52841 20.1491 3.73425 20.141 3.74241 19.9691C3.75215 19.7695 3.49922 19.6656 3.06147 19.6139C2.99338 19.3741 3.07159 19.1438 3.16342 19.0908C3.21712 19.4662 3.53346 19.579 3.69845 19.518C3.93658 19.4301 3.75681 19.1384 3.76654 18.8391C3.7751 18.5796 3.79573 18.4678 3.72296 18.2518C3.60972 17.9169 3.56927 17.6607 3.63735 17.3693C3.7144 17.04 4.91208 14.8791 5.31558 13.8206" fill="#AB9163"/>
<path d="M2.94165 20.5861C2.80974 20.5861 2.6969 20.5089 2.63425 20.3727C2.59612 20.2899 2.50468 20.1758 2.39923 20.0439C2.18833 19.7803 1.92529 19.4523 1.8751 19.1122C1.8035 18.6311 2.03814 18.1145 2.27666 17.6722C2.42219 17.4029 2.53697 16.9844 2.67044 16.4997C2.83503 15.9006 3.0218 15.2214 3.33037 14.561C3.4895 14.2204 3.69341 13.3488 3.82842 12.7718C3.87902 12.5561 3.91869 12.3861 3.94594 12.2855C4.12609 11.6235 4.19419 11.0902 4.24399 10.7011C4.2864 10.3701 4.31675 10.1308 4.39264 9.96621C4.6619 9.38024 5.1907 9.30196 5.70198 9.22592C5.84361 9.20483 5.98992 9.1831 6.13077 9.15084C6.18253 9.13901 6.23623 9.16361 6.25063 9.20611C6.26502 9.2486 6.23507 9.29269 6.18331 9.30451C6.0339 9.33903 5.88292 9.36139 5.73699 9.38311C5.237 9.45723 4.80509 9.52145 4.57512 10.0228C4.50858 10.1681 4.47901 10.3985 4.43816 10.718C4.38796 11.111 4.31909 11.6497 4.13659 12.3206C4.10976 12.4187 4.06812 12.5963 4.02025 12.8021C3.88406 13.3846 3.67785 14.2645 3.51247 14.6185C3.20896 15.268 3.02414 15.9413 2.86072 16.5352C2.7253 17.0282 2.60818 17.4537 2.45487 17.7374C2.22685 18.1595 2.00273 18.6506 2.06849 19.093C2.11362 19.3959 2.36226 19.7069 2.56227 19.9565C2.67433 20.0963 2.77083 20.2171 2.81674 20.3165C2.84203 20.3714 2.88717 20.4353 2.95799 20.4254C3.04671 20.4133 3.17977 20.2899 3.18796 20.0983C3.18912 20.0742 3.20312 20.0519 3.22609 20.0375C3.24944 20.0232 3.27939 20.0178 3.3078 20.0235C3.52219 20.0657 3.59496 20.0394 3.61637 20.026C3.62375 20.0216 3.64282 20.0098 3.64476 19.966C3.6471 19.9162 3.6545 19.7647 3.04709 19.6928C3.00741 19.688 2.9755 19.6641 2.96616 19.6318C2.89651 19.3874 2.9611 19.1094 3.10703 19.025C3.13504 19.0088 3.17123 19.0058 3.20274 19.0174C3.23387 19.0289 3.25566 19.0532 3.25954 19.0809C3.28289 19.2433 3.36538 19.3689 3.4864 19.4254C3.55955 19.4592 3.62297 19.4577 3.658 19.4449C3.74127 19.4141 3.73543 19.3328 3.7008 19.1404C3.68407 19.0481 3.66538 18.9435 3.66889 18.8365C3.67045 18.7944 3.67201 18.7563 3.67357 18.7209C3.68135 18.541 3.68601 18.4419 3.62881 18.2729C3.52141 17.956 3.46577 17.6783 3.54166 17.3537C3.57823 17.1965 3.8366 16.6843 4.16384 16.0357C4.53777 15.2945 5.00314 14.3718 5.22259 13.7964C5.23856 13.7542 5.29342 13.7309 5.34439 13.744C5.39575 13.7571 5.42416 13.8021 5.4082 13.844C5.18602 14.4265 4.71871 15.3527 4.3436 16.0968C4.03349 16.7115 3.76578 17.2426 3.73271 17.3837C3.67317 17.6388 3.69651 17.8761 3.81636 18.2298C3.88174 18.4228 3.87628 18.5436 3.86812 18.7263C3.86656 18.7611 3.86499 18.7988 3.86345 18.8404C3.86033 18.9334 3.87706 19.0263 3.8934 19.1164C3.92804 19.3081 3.96383 19.5065 3.73777 19.59C3.63621 19.6272 3.50625 19.6177 3.39029 19.5637C3.31986 19.5308 3.21402 19.4628 3.14088 19.3299C3.12998 19.3905 3.12803 19.4634 3.1432 19.5423C3.46733 19.5861 3.85293 19.6826 3.83893 19.9714C3.83426 20.0698 3.779 20.1242 3.73349 20.1522C3.65294 20.2021 3.53348 20.2165 3.37006 20.1953C3.32608 20.3951 3.17199 20.5571 2.98951 20.582C2.97356 20.5843 2.9576 20.5851 2.94203 20.5851L2.94165 20.5861Z" fill="black"/>
<path d="M9.61292 9.22748C10.2651 9.37764 10.9651 9.29521 11.2861 9.99428C11.4448 10.34 11.4001 11.0956 11.7289 12.3027C11.8308 12.6781 12.1285 14.1171 12.3487 14.5894C12.9102 15.7913 13.076 17.0972 13.404 17.7045C13.6523 18.1639 13.8643 18.6557 13.7978 19.1023C13.7246 19.5937 13.1655 20.0806 13.0437 20.3445C12.8916 20.6743 12.4989 20.4525 12.4841 20.1011C12.241 20.1491 12.0351 20.141 12.0269 19.9691C12.0172 19.7695 12.2702 19.6656 12.7079 19.6139C12.776 19.3741 12.6978 19.1438 12.6059 19.0908C12.5522 19.4662 12.2359 19.579 12.0709 19.518C11.8328 19.4301 12.0126 19.1384 12.0028 18.8391C11.9943 18.5796 11.9736 18.4678 12.0464 18.2518C12.1596 17.9169 12.2001 17.6607 12.132 17.3693C12.055 17.04 10.8573 14.8791 10.4538 13.8206" fill="#AB9163"/>
<path d="M12.8273 20.5861C12.8118 20.5861 12.7958 20.5851 12.7799 20.5828C12.5974 20.558 12.4433 20.3961 12.3993 20.1963C12.2359 20.2174 12.116 20.203 12.0359 20.1532C11.9904 20.1248 11.9351 20.0704 11.9304 19.9724C11.9164 19.6839 12.302 19.5873 12.6262 19.5433C12.6413 19.4644 12.639 19.3915 12.6285 19.3308C12.555 19.4636 12.4495 19.5318 12.3791 19.5646C12.2635 19.6187 12.1335 19.6282 12.0316 19.5908C11.8055 19.5075 11.8413 19.309 11.876 19.1174C11.8923 19.0273 11.909 18.9343 11.9059 18.8414C11.9047 18.7998 11.9028 18.7621 11.9012 18.7273C11.8931 18.5445 11.888 18.4237 11.953 18.2308C12.0728 17.8767 12.0962 17.6394 12.0367 17.3847C12.0036 17.2434 11.7359 16.7125 11.4258 16.0978C11.0503 15.3533 10.5829 14.4271 10.3612 13.8446C10.3452 13.8024 10.3736 13.7577 10.425 13.7446C10.4763 13.7315 10.5308 13.7548 10.5468 13.797C10.7662 14.3724 11.2316 15.2951 11.6055 16.0367C11.9328 16.6853 12.1907 17.1975 12.2277 17.3547C12.3036 17.6793 12.2475 17.9566 12.1405 18.2739C12.0833 18.4429 12.0876 18.5419 12.0958 18.7219C12.0974 18.7573 12.0989 18.7953 12.1005 18.8375C12.104 18.9445 12.0849 19.0489 12.0686 19.1413C12.0339 19.3336 12.0281 19.4151 12.1114 19.4459C12.1464 19.4585 12.2098 19.4605 12.283 19.4264C12.404 19.3697 12.4869 19.2445 12.5098 19.0819C12.5137 19.0538 12.5355 19.0299 12.5666 19.0183C12.5977 19.0068 12.6343 19.0097 12.6623 19.026C12.8083 19.1103 12.8728 19.388 12.8032 19.6327C12.7943 19.6647 12.7619 19.689 12.7223 19.6937C12.1149 19.7657 12.1223 19.917 12.1246 19.9668C12.1265 20.0104 12.146 20.0222 12.153 20.027C12.1744 20.0404 12.2472 20.0666 12.4616 20.0245C12.49 20.0186 12.5199 20.024 12.5433 20.0385C12.5666 20.0529 12.5806 20.0752 12.5814 20.0991C12.5892 20.2909 12.7223 20.4143 12.8114 20.4264C12.8826 20.4359 12.9273 20.3723 12.9526 20.3174C12.9985 20.2181 13.095 20.0973 13.2071 19.9573C13.4071 19.7075 13.6557 19.3969 13.7009 19.094C13.7666 18.6516 13.5425 18.1605 13.3145 17.7384C13.1612 17.4547 13.0444 17.029 12.9086 16.5361C12.7452 15.9421 12.5604 15.2693 12.2569 14.6194C12.0915 14.2657 11.8857 13.3855 11.7491 12.803C11.7009 12.5973 11.6592 12.4196 11.6328 12.3215C11.4503 11.6506 11.3814 11.1122 11.3312 10.7189C11.2903 10.3997 11.2608 10.1691 11.1942 10.024C10.9639 9.52303 10.5324 9.45881 10.0324 9.38437C9.88643 9.36264 9.73546 9.34028 9.58605 9.30576C9.53429 9.29394 9.50434 9.24985 9.51873 9.20736C9.53313 9.16486 9.58683 9.14026 9.63859 9.15209C9.77905 9.18435 9.92575 9.20608 10.0674 9.22718C10.5787 9.30322 11.1075 9.3818 11.3767 9.96746C11.4522 10.132 11.483 10.371 11.525 10.7023C11.5748 11.0915 11.6429 11.6247 11.823 12.2867C11.8503 12.3874 11.8904 12.5573 11.9405 12.773C12.0756 13.3497 12.2799 14.2216 12.4386 14.5622C12.7472 15.2226 12.9335 15.9016 13.0985 16.5009C13.2316 16.9856 13.3468 17.4045 13.4923 17.6738C13.7308 18.1157 13.9655 18.6324 13.8939 19.1138C13.8433 19.4538 13.5806 19.7819 13.3697 20.0455C13.2639 20.1774 13.1729 20.2915 13.1347 20.3743C13.0721 20.5104 12.9592 20.5877 12.8273 20.5877V20.5861Z" fill="black"/>
<path d="M10.5803 5.29824C10.5515 3.98189 9.65417 2.93393 7.88451 2.93393C6.11485 2.93393 5.21757 3.98189 5.18878 5.29824C4.65957 5.41837 4.37787 5.89316 4.53235 6.4363C4.64907 6.84687 5.08488 7.13314 5.65414 7.1357C5.71718 7.23123 5.78761 7.31717 5.8666 7.38937C6.34287 7.82582 6.98995 8.07694 7.88491 8.07694C8.77985 8.07694 9.42693 7.82582 9.90322 7.38937C9.98181 7.31717 10.0526 7.23123 10.1157 7.1357C10.6849 7.13314 11.1207 6.84687 11.2375 6.4363C11.3915 5.89316 11.1102 5.41837 10.581 5.29824H10.5803Z" fill="#AB9163"/>
<path d="M7.88449 8.15681C7.002 8.15681 6.31834 7.92326 5.79381 7.44272C5.72417 7.37883 5.65802 7.30246 5.59614 7.2146C5.02376 7.19352 4.5619 6.89286 4.43737 6.45483C4.27902 5.89666 4.55333 5.39663 5.09303 5.23944C5.12027 4.56657 5.36774 3.9905 5.80976 3.57036C6.30315 3.10198 7.02028 2.85403 7.88411 2.85403C8.74793 2.85403 9.46505 3.10165 9.95844 3.57036C10.4009 3.9905 10.6479 4.56657 10.6752 5.23944C11.2149 5.39632 11.4896 5.89666 11.3308 6.45483C11.2063 6.89286 10.7444 7.19352 10.1721 7.2146C10.1102 7.30246 10.044 7.37914 9.9744 7.44272C9.44988 7.92326 8.76582 8.15681 7.88371 8.15681H7.88449ZM7.88449 3.01379C6.65257 3.01379 5.32261 3.61445 5.28603 5.29982C5.28525 5.33529 5.25606 5.36596 5.21483 5.37522C4.7335 5.4845 4.48641 5.92318 4.62688 6.41808C4.73622 6.80308 5.13972 7.05325 5.6545 7.05549C5.68992 7.05549 5.72261 7.07178 5.73933 7.09734C5.80159 7.19159 5.86852 7.27179 5.93856 7.3357C6.42417 7.78044 7.06036 7.99674 7.88449 7.99674C8.70862 7.99674 9.34482 7.78044 9.83043 7.3357C9.90046 7.27148 9.9674 7.19128 10.0296 7.09734C10.0468 7.07178 10.0791 7.05582 10.1145 7.05549C10.6293 7.05325 11.0324 6.80308 11.1421 6.41808C11.2826 5.92318 11.0355 5.4845 10.5542 5.37522C10.5125 5.36565 10.4837 5.33498 10.483 5.29982C10.4588 4.19467 9.76349 3.01379 7.88449 3.01379Z" fill="black"/>
<path d="M9.69968 6.86351C9.93134 6.86351 10.1191 6.7093 10.1191 6.51908C10.1191 6.32887 9.93134 6.17467 9.69968 6.17467C9.46802 6.17467 9.28021 6.32887 9.28021 6.51908C9.28021 6.7093 9.46802 6.86351 9.69968 6.86351Z" fill="#FFD1BF" fill-opacity="0.3"/>
<path d="M6.07901 6.86351C6.31067 6.86351 6.49848 6.7093 6.49848 6.51908C6.49848 6.32887 6.31067 6.17467 6.07901 6.17467C5.84735 6.17467 5.65956 6.32887 5.65956 6.51908C5.65956 6.7093 5.84735 6.86351 6.07901 6.86351Z" fill="#FFD1BF" fill-opacity="0.3"/>
<path d="M7.90158 6.67264C8.00496 6.67264 8.08875 6.60387 8.08875 6.51904C8.08875 6.43419 8.00496 6.36542 7.90158 6.36542C7.79822 6.36542 7.71443 6.43419 7.71443 6.51904C7.71443 6.60387 7.79822 6.67264 7.90158 6.67264Z" fill="#FFD1BF" fill-opacity="0.3"/>
<path d="M7.26505 7.02932C7.27479 7.1092 7.46427 7.36097 7.8779 7.34882C8.2281 7.3386 8.51993 7.17693 8.52965 7.03316C8.35883 6.98332 8.29152 6.97117 7.89229 7.02932C7.45455 6.99738 7.40591 7.00536 7.26505 7.02932Z" fill="#FFD1BF" fill-opacity="0.3"/>
<path d="M7.18256 7.13686C7.15727 7.13686 7.13276 7.12696 7.11758 7.10843C7.09385 7.07904 7.10357 7.03945 7.13898 7.01996C7.35378 6.90243 7.54443 6.92288 7.71253 6.94045C7.77441 6.94715 7.83315 6.95322 7.89229 6.95322C7.95573 6.95322 8.02187 6.94747 8.08568 6.94173C8.27246 6.92511 8.46545 6.90818 8.64912 7.02188C8.68335 7.04328 8.69037 7.0832 8.66428 7.11131C8.63821 7.13941 8.58958 7.14515 8.55534 7.12376C8.42071 7.0404 8.27324 7.05351 8.10242 7.06851C8.03432 7.07458 7.96428 7.08065 7.89229 7.08065C7.82031 7.08065 7.75688 7.07362 7.69268 7.06691C7.5312 7.04966 7.39151 7.03497 7.22537 7.12599C7.21213 7.13335 7.19696 7.13686 7.18218 7.13686H7.18256Z" fill="#0D0D0D"/>
<path d="M7.90008 7.40077C7.72108 7.40077 7.54288 7.35733 7.41291 7.26983C7.38801 7.25291 7.3845 7.22288 7.40475 7.20245C7.42498 7.18201 7.46195 7.17913 7.48684 7.19573C7.70708 7.34392 8.1098 7.34042 8.3316 7.18808C8.35651 7.17115 8.39308 7.1737 8.41371 7.19414C8.43433 7.21459 8.43121 7.2446 8.4063 7.26153C8.27129 7.35415 8.08529 7.40077 7.89969 7.40077H7.90008Z" fill="#0D0D0D"/>
<path d="M5.71756 5.33964C5.67593 5.33964 5.63741 5.3176 5.62457 5.28343C5.6086 5.24126 5.63741 5.19656 5.68877 5.18346C6.0627 5.08861 6.40628 5.0257 6.9631 5.00429C7.01602 5.00238 7.06232 5.03623 7.06466 5.0803C7.067 5.12438 7.02574 5.16175 6.97204 5.16365C6.43624 5.1841 6.1055 5.24478 5.74635 5.3358C5.73663 5.33836 5.72728 5.33931 5.71756 5.33931V5.33964Z" fill="#0D0D0D"/>
<path d="M6.43002 6.54592C6.67606 6.54592 6.87554 6.38214 6.87554 6.18009C6.87554 5.97805 6.67606 5.81427 6.43002 5.81427C6.18395 5.81427 5.98448 5.97805 5.98448 6.18009C5.98448 6.38214 6.18395 6.54592 6.43002 6.54592Z" fill="#0D0D0D"/>
<path d="M10.0612 5.33966C10.0519 5.33966 10.0421 5.3384 10.0324 5.33616C9.67287 5.24514 9.34252 5.18445 8.80671 5.16402C8.75301 5.1621 8.71177 5.12474 8.71411 5.08067C8.71644 5.03659 8.76197 5.00273 8.81567 5.00466C9.37209 5.02605 9.71567 5.08896 10.09 5.18383C10.1414 5.19691 10.1701 5.24163 10.1542 5.28378C10.1414 5.31795 10.1028 5.33999 10.0612 5.33999V5.33966Z" fill="#0D0D0D"/>
<path d="M9.34873 6.54592C9.5948 6.54592 9.79427 6.38214 9.79427 6.18009C9.79427 5.97805 9.5948 5.81427 9.34873 5.81427C9.10267 5.81427 8.90321 5.97805 8.90321 6.18009C8.90321 6.38214 9.10267 6.54592 9.34873 6.54592Z" fill="#0D0D0D"/>
<path d="M7.92652 8.95422C7.42068 8.97819 7.06582 8.85453 6.97321 8.61874C6.74168 8.60661 6.62106 8.74271 6.51134 8.81619C5.8304 9.27149 4.96464 9.18745 4.65841 9.51526C4.55957 9.62069 4.34244 9.6469 4.19147 10.0265C4.05568 10.3677 3.86539 10.9172 3.65139 11.6757C3.38952 12.6039 3.15372 13.4713 2.79846 14.1343C2.67784 14.3599 2.50935 14.4164 2.64943 14.4995C3.01909 14.7193 3.85567 14.7909 4.4051 14.8909C4.32261 16.1012 3.89614 18.0798 4.06968 17.8105C4.66307 18.1421 5.76852 18.3429 7.7452 18.4278C8.67439 18.4678 10.1787 18.3377 11.025 18.078C11.2686 18.0031 11.516 17.8703 11.5892 17.7584C11.6962 17.6823 11.4869 15.704 11.5063 15.0209C12.0752 14.989 12.8098 14.865 13.1309 14.6854C13.239 14.6247 13.2328 14.5177 13.1344 14.3941C12.7192 13.8742 12.2347 12.4617 12.1095 11.6745C11.9779 10.8476 11.6666 9.89739 11.4188 9.70568C11.0518 9.42229 10.4024 9.2881 9.91604 9.04432C9.71525 8.94368 9.40514 8.88681 9.23004 8.75102C9.12264 8.66762 8.953 8.61938 8.80669 8.6312C8.73705 8.73281 8.48724 8.92803 7.92652 8.95455V8.95422Z" fill="#44433B"/>
<path d="M8.09502 18.514C7.96933 18.514 7.85027 18.5119 7.74015 18.507C5.85959 18.4262 4.72301 18.2416 4.07902 17.9102C4.05335 17.9179 4.02961 17.9151 4.01288 17.9108C3.91833 17.8863 3.91677 17.8109 3.95258 17.5243C3.97553 17.3396 4.01482 17.0869 4.06074 16.7946C4.14985 16.2217 4.26035 15.5143 4.30316 14.9545C4.1911 14.9356 4.0693 14.9171 3.94167 14.8983C3.44828 14.8241 2.88914 14.7404 2.59225 14.5641C2.42649 14.4653 2.51793 14.357 2.58446 14.2778C2.62221 14.2331 2.6689 14.1775 2.70937 14.1021C3.044 13.4771 3.27514 12.6566 3.51949 11.7882L3.55646 11.6576C3.80315 10.7831 4.00199 10.2444 4.09849 10.0013C4.21639 9.70477 4.37553 9.60444 4.49149 9.53096C4.53 9.50668 4.56075 9.48719 4.5806 9.4661C4.7479 9.2875 5.04012 9.22136 5.37866 9.14499C5.72224 9.06736 6.11134 8.97982 6.4491 8.75393C6.46738 8.74178 6.48761 8.72644 6.50862 8.71016C6.61018 8.63283 6.7491 8.52676 6.97866 8.53858C7.01836 8.54082 7.05299 8.56254 7.06505 8.59385C7.14248 8.79099 7.46194 8.89579 7.92032 8.87406C8.41565 8.85074 8.6569 8.68523 8.72148 8.59131C8.73704 8.56861 8.76507 8.55361 8.79658 8.55105C8.97091 8.53666 9.16702 8.59226 9.2962 8.69226C9.38959 8.76447 9.53706 8.81528 9.67986 8.86383C9.77869 8.89771 9.88065 8.93253 9.96586 8.97534C10.1553 9.07023 10.376 9.15011 10.5896 9.22744C10.9157 9.34533 11.2526 9.46737 11.4846 9.64661C11.7663 9.86419 12.0779 10.863 12.2052 11.6633C12.332 12.4621 12.8227 13.8586 13.2149 14.3497C13.4118 14.5963 13.2418 14.7193 13.185 14.751C12.855 14.9356 12.1522 15.0555 11.6017 15.0944C11.5997 15.3945 11.6308 15.8824 11.6608 16.3555C11.7351 17.5265 11.7316 17.7351 11.6686 17.8041C11.569 17.9454 11.2845 18.0831 11.0585 18.1524C10.2861 18.3895 9.01098 18.514 8.09424 18.514H8.09502ZM4.12612 17.7448C4.71911 18.0751 5.87087 18.2667 7.75066 18.3476C8.64327 18.386 10.1363 18.2652 10.9912 18.0028C11.2211 17.9323 11.4464 17.8082 11.5036 17.7204C11.5052 17.7179 11.5071 17.7153 11.5091 17.713C11.546 17.6048 11.5024 16.9179 11.4674 16.3642C11.4347 15.8482 11.4009 15.3146 11.4094 15.019C11.4106 14.9778 11.4499 14.944 11.5001 14.9411C12.0534 14.9101 12.7725 14.7896 13.0764 14.6193C13.146 14.5804 13.1021 14.4989 13.053 14.4375C12.6363 13.9155 12.1437 12.5046 12.0133 11.6844C11.8772 10.8278 11.5686 9.93033 11.3526 9.76324C11.1453 9.60285 10.8378 9.49165 10.5125 9.37376C10.2931 9.29453 10.0666 9.21241 9.86586 9.11177C9.7931 9.07535 9.70242 9.04435 9.60631 9.01145C9.44755 8.95713 9.28297 8.90089 9.16389 8.80856C9.08725 8.74914 8.96818 8.7108 8.86117 8.70888C8.77558 8.80345 8.52459 9.00601 7.93276 9.03381C7.4203 9.0581 7.04481 8.93413 6.90862 8.69961C6.79578 8.71047 6.71797 8.76991 6.64248 8.82741C6.61874 8.84531 6.59657 8.86224 6.57322 8.87789C6.20357 9.12488 5.79345 9.21752 5.43118 9.29932C5.12651 9.36801 4.86308 9.42743 4.73585 9.56354C4.70044 9.60157 4.65686 9.62873 4.61095 9.65779C4.50939 9.7217 4.38331 9.80125 4.28409 10.0508C4.18836 10.2914 3.99147 10.8249 3.74634 11.6933L3.70977 11.8237C3.46307 12.6998 3.23 13.5273 2.88796 14.166C2.84011 14.2554 2.78525 14.3206 2.74517 14.3682C2.72766 14.389 2.70664 14.4139 2.69808 14.4286C2.70042 14.4302 2.70314 14.4321 2.70703 14.4344C2.96813 14.5893 3.50432 14.6698 3.97709 14.7408C4.13778 14.7647 4.28993 14.7877 4.42689 14.8126C4.47358 14.821 4.50549 14.8561 4.50315 14.8951C4.46386 15.4702 4.34752 16.2155 4.25452 16.8146C4.19498 17.197 4.1335 17.5907 4.1269 17.7448H4.12612Z" fill="black"/>
<path d="M10.9569 11.5838C10.9534 11.5838 10.9503 11.5838 10.9468 11.5831C10.9149 11.5786 10.8939 11.5537 10.8993 11.5275C11.0997 10.5946 11.2009 10.2942 11.3402 10.0083C11.3522 9.98369 11.3861 9.97187 11.4161 9.98146C11.446 9.99136 11.4604 10.0192 11.4487 10.0438C11.3308 10.2853 11.2308 10.5345 11.0141 11.5438C11.009 11.5671 10.9845 11.5834 10.9565 11.5834L10.9569 11.5838Z" fill="black"/>
<path d="M4.86232 11.3921C4.83392 11.3921 4.80941 11.3751 4.80474 11.3515C4.76467 11.1403 4.63236 10.4122 4.61446 9.91182C4.6137 9.8853 4.63898 9.86325 4.67128 9.86261C4.70279 9.86197 4.73042 9.88274 4.7312 9.90926C4.7491 10.4042 4.88023 11.1272 4.9203 11.3371C4.92537 11.3633 4.90358 11.3879 4.87167 11.3917C4.86855 11.3921 4.86544 11.3924 4.86272 11.3924L4.86232 11.3921Z" fill="black"/>
<path d="M7.9032 9.37022C7.38608 9.37022 6.93314 9.23635 6.70902 9.01494C6.68139 8.98778 6.68607 8.94752 6.71914 8.92484C6.75221 8.90215 6.80123 8.90599 6.82886 8.93315C7.03275 9.13475 7.46935 9.25296 7.96818 9.24147C8.39697 9.23157 8.72071 9.12101 8.95807 8.90312C8.98686 8.87691 9.0359 8.87468 9.06779 8.89799C9.0997 8.92164 9.10242 8.9619 9.07403 8.98809C8.80632 9.23347 8.44601 9.35776 7.97246 9.36863C7.94911 9.36927 7.92615 9.36927 7.9032 9.36927V9.37022Z" fill="black"/>
<mask id="mask1_8_49" style="mask-type:luminance" maskUnits="userSpaceOnUse" x="1" y="8" width="14" height="13">
<path d="M14.8667 8.10921H1V20.0596H14.8667V8.10921Z" fill="white"/>
</mask>
<g mask="url(#mask1_8_49)">
<path d="M6.75923 8.81592C6.76896 8.60025 6.85185 8.39257 6.96857 8.28491C6.82772 8.24911 6.67207 8.28491 6.56973 8.33282C6.31214 8.45359 6.10124 8.65968 6.00087 8.75616C5.70552 9.03989 4.30357 8.94787 3.67089 9.9102C3.08332 10.8045 2.5518 11.7243 2.22145 12.4943C2.07008 12.8474 2.18915 13.0554 1.9588 13.4171C1.73973 13.7605 1.38486 14.212 1.25334 14.4794C0.979023 15.0382 1.17513 15.2708 1.12222 15.7613C1.02494 16.6597 1.31171 16.8475 1.98798 17.175C1.87592 17.3706 1.73856 18.1629 2.08993 18.2336C2.30861 18.2777 3.25726 18.3652 3.75337 18.2214C3.80707 18.2534 3.84871 18.3195 3.8701 18.369C3.92224 18.4908 3.68527 18.7125 3.8164 18.7445C4.26388 18.8533 6.76468 19.0004 6.86117 18.8643C6.98257 18.6924 6.91487 18.2892 6.92927 18.1374C6.33589 17.3067 6.76896 12.7298 7.17752 11.1521C7.27792 10.7646 7.36353 10.1754 7.26001 10.0057C6.90515 9.42265 6.73939 9.25459 6.75884 8.81559L6.75923 8.81592Z" fill="#563E51"/>
<path d="M6.2779 8.52037C6.20981 8.56032 6.15649 8.62421 6.07868 8.70409C5.94716 9.01145 5.95222 9.18335 6.21487 9.59869C6.29268 9.63447 6.39464 9.75046 6.51642 9.77442C6.12732 9.39901 6.03977 8.93573 6.27829 8.52037H6.2779Z" fill="white"/>
<path d="M6.64249 8.31274C6.57439 8.35268 6.46273 8.40476 6.3849 8.48463C6.27284 8.90413 6.24872 9.28754 6.69153 9.87861C6.79853 9.90674 6.86662 9.93868 7.01759 9.98245C6.7211 9.72686 6.29307 8.91213 6.64328 8.31306L6.64249 8.31274Z" fill="white"/>
<path d="M6.2191 19.001C6.03272 19.001 5.7977 18.9959 5.50003 18.9841C4.86851 18.9584 4.10002 18.9013 3.85215 18.8412C3.67589 18.7984 3.70118 18.6029 3.71946 18.4601C3.72452 18.4221 3.72919 18.386 3.72919 18.3611C3.72919 18.3485 3.72959 18.3365 3.72997 18.3242C3.72997 18.3154 3.73075 18.3044 3.73075 18.2942C3.20078 18.4144 2.29222 18.3559 2.06692 18.3108C2.00194 18.2978 1.91167 18.2603 1.85058 18.1556C1.71167 17.9172 1.80038 17.4499 1.89143 17.2293C1.26691 16.9255 0.955628 16.7382 1.02489 15.7567C1.03578 15.6005 1.02489 15.4711 1.01399 15.3459C0.991426 15.0868 0.970414 14.842 1.16302 14.4494C1.24007 14.2922 1.37937 14.1113 1.52645 13.9196C1.63851 13.7739 1.75408 13.6231 1.84824 13.4759C1.86342 13.4519 1.88249 13.4244 1.9035 13.3944C1.96653 13.3036 2.06186 13.1669 2.0572 13.0976C2.01089 12.3924 2.62996 11.3991 3.6436 9.83672C4.08173 9.16161 4.83426 8.99931 5.38369 8.88109C5.63232 8.82741 5.84673 8.78141 5.92688 8.70441L5.95373 8.67853C6.06501 8.57054 6.2514 8.38938 6.50198 8.27181C6.62611 8.21366 6.80937 8.18841 6.98059 8.20598C7.01638 8.20982 7.04674 8.22931 7.05958 8.25711C7.07242 8.28491 7.06542 8.31622 7.04129 8.33826C6.93974 8.4322 6.86541 8.6255 6.85647 8.81943C6.84206 9.14245 6.95102 9.31115 7.16892 9.64727C7.23 9.74183 7.29926 9.84855 7.37631 9.97506C7.47943 10.1444 7.40122 10.5633 7.28876 11.0936L7.2732 11.1665C7.04285 12.2582 6.84322 13.8027 6.76502 15.1005C6.66968 16.6823 6.75607 17.7479 7.00822 18.1013C7.01833 18.1154 7.02301 18.1316 7.02145 18.148C7.01755 18.1878 7.02145 18.2544 7.02533 18.3246C7.03623 18.5183 7.05024 18.7594 6.95024 18.9007C6.92339 18.9384 6.87904 19.0013 6.2191 19.0013V19.001ZM3.91247 18.6891C4.39612 18.8038 6.54128 18.8912 6.78992 18.8081C6.85219 18.7025 6.84012 18.4891 6.83118 18.3319C6.82728 18.2658 6.82416 18.207 6.82612 18.1603C6.49342 17.6533 6.50315 16.2165 6.57085 15.0922C6.64946 13.7883 6.85023 12.2365 7.08175 11.1387L7.09731 11.0655C7.16776 10.7349 7.28526 10.1815 7.20237 10.0457C7.1265 9.92107 7.05802 9.815 6.99732 9.72139C6.77048 9.37153 6.64557 9.17887 6.6623 8.81272C6.66968 8.64627 6.71678 8.48619 6.7907 8.36319C6.71716 8.36989 6.64907 8.38619 6.59848 8.40983C6.37746 8.51367 6.2051 8.68109 6.10198 8.78109L6.07435 8.80792C5.95451 8.92295 5.72415 8.9728 5.43271 9.03542C4.91792 9.14628 4.21324 9.29836 3.8152 9.91181C2.81362 11.4553 2.20856 12.4394 2.25136 13.0889C2.25914 13.2049 2.15564 13.3538 2.07237 13.4733C2.05292 13.5014 2.03502 13.5273 2.02062 13.5497C1.92295 13.7027 1.80505 13.8564 1.69104 14.0046C1.54863 14.1899 1.414 14.365 1.34357 14.5088C1.16769 14.867 1.18637 15.0836 1.20816 15.3344C1.21944 15.4644 1.23112 15.5989 1.21944 15.7657C1.15446 16.6866 1.40155 16.8064 2.06186 17.1262C2.10506 17.1473 2.12179 17.1916 2.10039 17.2291C2.01556 17.3773 1.90505 17.8782 2.02646 18.0869C2.0607 18.1454 2.10039 18.1534 2.11323 18.1559C2.32996 18.1993 3.28173 18.2582 3.75021 18.1223C3.779 18.1141 3.81091 18.1172 3.83658 18.1313C3.92998 18.1824 3.92686 18.2675 3.92453 18.3298C3.92414 18.3403 3.92375 18.3508 3.92375 18.3616C3.92375 18.3949 3.91869 18.4348 3.91325 18.4773C3.90625 18.5319 3.8899 18.6578 3.91285 18.6894L3.91247 18.6891Z" fill="black"/>
<path d="M7.27516 10.09C7.27127 10.09 7.26737 10.09 7.26349 10.0891C5.99266 9.87948 5.8195 9.12897 5.79655 8.90373C5.79383 8.87722 5.81756 8.85421 5.84985 8.85196C5.88254 8.84973 5.91017 8.86955 5.91289 8.89574C5.9339 9.10406 6.09538 9.79865 7.28644 9.99483C7.31797 9.99994 7.33858 10.0252 7.33236 10.0514C7.32691 10.0741 7.3024 10.0897 7.27516 10.0897V10.09Z" fill="black"/>
<path d="M8.97245 9.00756C8.98023 8.82385 8.94834 8.45642 8.80709 8.34875C9.01136 8.24491 9.3565 8.42479 9.64366 8.64845C9.90281 8.85037 11.7589 9.1475 12.4842 10.1341C13.1067 10.9808 13.4694 12.8499 13.7437 13.3611C14.1087 14.04 14.5803 14.5433 14.7457 16.045C14.7885 16.4325 14.6678 16.6066 14.4733 16.8757C14.2106 17.2391 13.7779 17.2191 13.7923 17.3268C13.8215 17.5415 13.9721 18.1057 13.7682 18.2214C13.6165 18.3073 12.62 18.5833 11.9978 18.5047C11.9347 18.4968 12.013 18.6974 11.8616 18.7443C11.5262 18.8482 8.7919 19.0358 8.79736 18.8643C8.80709 18.5607 8.79736 18.317 8.82147 18.1172C9.31253 17.4622 9.16195 13.3125 8.5491 10.7766C8.46623 10.4345 8.3888 10.2456 8.5491 9.99386C8.74949 9.67979 8.95766 9.35486 8.97245 9.00724V9.00756Z" fill="#563E51"/>
<path d="M9.49271 8.55232C9.56079 8.59227 9.66313 8.68396 9.73589 8.69196C9.85263 8.89164 9.77949 9.27919 9.56079 9.61467C9.49271 9.67857 9.42462 9.72266 9.31255 9.80255C9.53122 9.49102 9.66275 8.92806 9.49233 8.55265L9.49271 8.55232Z" fill="white"/>
<path d="M9.06975 8.3488C9.13785 8.38873 9.2787 8.44849 9.35653 8.52836C9.50244 8.80792 9.40516 9.48686 9.10828 9.87825C8.99154 9.92235 8.92852 9.94598 8.77754 9.98209C9.0647 9.70668 9.43435 8.9239 9.06937 8.3488H9.06975Z" fill="white"/>
<path d="M9.30788 19.0112C9.05067 19.0112 8.85612 18.9981 8.77907 18.9653C8.72771 18.9435 8.70943 18.9132 8.7028 18.8917C8.64911 18.716 8.69114 18.3806 8.71877 18.1585L8.72499 18.1093C8.72693 18.0946 8.73355 18.0805 8.74444 18.069C9.18491 17.593 9.13122 13.8414 8.49775 10.9707C8.48881 10.9307 8.47946 10.8905 8.47012 10.8499C8.39425 10.5224 8.31565 10.1841 8.47324 9.93708L8.48413 9.91982C8.6783 9.61534 8.86196 9.32778 8.87557 9.00477C8.88531 8.77313 8.83355 8.4776 8.74094 8.40698C8.71487 8.38686 8.70398 8.35683 8.71331 8.32839C8.72265 8.29995 8.7499 8.2779 8.78451 8.27087C9.1499 8.19834 9.4713 8.40346 9.711 8.59006C9.77092 8.63671 9.98103 8.70411 10.2246 8.78208C10.9013 8.99902 12.0332 9.36197 12.5678 10.0923C12.9978 10.6799 13.2546 11.5167 13.4814 12.2547C13.6429 12.78 13.7822 13.2334 13.9523 13.5034C14.49 14.3564 14.7963 15.1986 14.8628 16.007C14.8966 16.4181 14.7274 16.6527 14.5309 16.9239L14.5282 16.9277C14.3562 17.1657 14.1235 17.2616 13.9842 17.3191C13.9507 17.3329 13.9106 17.3496 13.8916 17.3607C13.897 17.3958 13.9048 17.4386 13.9141 17.4873C13.9834 17.8572 14.0246 18.1729 13.8239 18.2867C13.6332 18.3946 12.9492 18.6119 12.1596 18.5521C12.1048 18.548 12.0612 18.5457 12.0297 18.545C12.0297 18.548 12.0297 18.5506 12.0297 18.5534C12.0316 18.627 12.0351 18.7496 11.8678 18.8027C11.66 18.8687 10.1507 19.0109 9.30826 19.0109L9.30788 19.0112ZM8.88531 18.8288C8.97986 18.8525 9.36896 18.8739 10.3184 18.8099C11.0573 18.7601 11.6908 18.6879 11.797 18.654C11.8305 18.6435 11.8367 18.6345 11.8343 18.5575C11.8336 18.5224 11.8324 18.4829 11.8453 18.4442C11.8523 18.4231 11.8698 18.4052 11.8931 18.3946C11.9149 18.385 11.9402 18.3828 11.9639 18.388C11.9904 18.3854 12.0406 18.3834 12.1764 18.3937C12.9281 18.4506 13.5655 18.2393 13.7126 18.1559C13.8293 18.0898 13.7534 17.685 13.7212 17.5122C13.7102 17.4543 13.7009 17.4048 13.6955 17.3639C13.6822 17.2655 13.7912 17.2204 13.8962 17.1773C14.0317 17.1214 14.2173 17.045 14.3601 16.8472L14.3628 16.8434C14.5499 16.5846 14.6974 16.3802 14.6678 16.0188C14.6033 15.2328 14.304 14.4114 13.7787 13.5781C13.5982 13.2918 13.4566 12.8299 13.292 12.295C13.0686 11.5675 12.8153 10.7429 12.4001 10.1757C11.8997 9.49201 10.8063 9.1412 10.153 8.93193C9.85847 8.83735 9.66352 8.77505 9.57635 8.707C9.33589 8.51977 9.14678 8.42775 8.97208 8.41753C9.08336 8.63894 9.07013 8.99294 9.06935 9.01148C9.05417 9.37092 8.85184 9.68818 8.65573 9.99491L8.64482 10.0122C8.51876 10.2099 8.59074 10.5205 8.66039 10.8211C8.67013 10.8624 8.67946 10.9033 8.68842 10.9435C8.97168 12.226 9.16819 13.8775 9.21448 15.3613C9.23667 16.0665 9.25028 17.731 8.91526 18.1474L8.91176 18.1757C8.88841 18.3636 8.8499 18.6719 8.88491 18.8297L8.88531 18.8288Z" fill="black"/>
<path d="M8.52497 10.1221C8.50902 10.1221 8.49268 10.1166 8.48139 10.1061C8.46 10.0863 8.46233 10.0559 8.48607 10.0384C8.52031 10.0134 8.58529 9.9965 8.68296 9.97125C9.05105 9.87668 9.81642 9.67954 9.89659 8.78046C9.89891 8.75394 9.92694 8.73414 9.95883 8.73606C9.99114 8.73798 10.0153 8.76098 10.0129 8.7875C9.92732 9.75143 9.07984 9.96965 8.71798 10.0626C8.65299 10.0792 8.57907 10.0984 8.5635 10.1099C8.55222 10.1179 8.53859 10.1221 8.52459 10.1221H8.52497Z" fill="black"/>
</g>
<path d="M10.0919 3.3029C9.72577 2.95401 9.08996 2.54408 7.8845 2.54408C6.67905 2.54408 6.04325 2.95401 5.6771 3.3029C5.31211 3.65051 4.91833 4.25342 5.05452 5.3196C5.10394 5.70555 5.18527 6.13976 5.32223 6.42188C5.31755 6.0864 5.33702 5.55124 5.47709 5.42152C5.74208 5.17614 5.58877 4.78092 5.70627 4.46909C5.76931 4.30134 5.9129 4.26236 6.1343 4.33329C6.66933 4.50518 7.4954 4.40071 7.8845 4.65631C8.27361 4.40071 9.09969 4.50518 9.63471 4.33329C9.85611 4.26236 9.9997 4.30134 10.0627 4.46909C10.1802 4.78092 10.0269 5.17614 10.2919 5.42152C10.4324 5.55124 10.4518 6.0864 10.4468 6.42188C10.5834 6.13976 10.6651 5.70555 10.7145 5.3196C10.8507 4.2531 10.4569 3.6502 10.0919 3.3029Z" fill="black"/>
<path d="M5.32185 6.50213C5.28254 6.50213 5.24636 6.48264 5.23158 6.45165C5.11406 6.20914 5.02185 5.83117 4.95764 5.32827C4.84713 4.46307 5.06426 3.76432 5.60317 3.25088C6.15883 2.72146 6.90513 2.46426 7.88452 2.46426C8.8639 2.46426 9.61021 2.72146 10.1659 3.25088C10.7048 3.76432 10.9219 4.46307 10.8114 5.32827C10.7472 5.83117 10.655 6.20914 10.5375 6.45165C10.5199 6.48743 10.474 6.50787 10.4281 6.50053C10.3822 6.49318 10.3491 6.45963 10.3495 6.42129C10.3581 5.81968 10.2845 5.53564 10.2192 5.47461C10.0343 5.30367 10.0273 5.0797 10.0203 4.86309C10.016 4.73017 10.0122 4.60493 9.96975 4.49278C9.94952 4.43911 9.92033 4.40459 9.88336 4.3899C9.825 4.36689 9.73513 4.38702 9.67014 4.40779C9.42694 4.48576 9.13278 4.5094 8.84795 4.53208C8.48569 4.56083 8.14405 4.58832 7.94522 4.71868C7.9098 4.74199 7.85923 4.74199 7.82381 4.71868C7.62498 4.58799 7.28296 4.56083 6.92108 4.53208C6.63664 4.5094 6.34209 4.48607 6.09889 4.40779C6.03392 4.38702 5.94403 4.36689 5.88567 4.3899C5.8487 4.40459 5.81951 4.43911 5.79928 4.49278C5.75726 4.60461 5.75298 4.73017 5.7487 4.86309C5.7417 5.0797 5.7343 5.304 5.54987 5.47461C5.48411 5.53531 5.41056 5.81968 5.41951 6.42129C5.41991 6.45963 5.38722 6.49318 5.34092 6.50053C5.33468 6.50149 5.32807 6.50213 5.32185 6.50213ZM7.88452 2.62401C6.96505 2.62401 6.26699 2.863 5.75064 3.35504C5.24831 3.83365 5.04636 4.49182 5.15103 5.31134C5.17748 5.51966 5.20901 5.70561 5.2448 5.8676C5.26853 5.64331 5.31601 5.45001 5.40434 5.36822C5.54169 5.24105 5.54791 5.05511 5.55414 4.8583C5.55842 4.72058 5.5631 4.57809 5.61329 4.44518C5.65025 4.3474 5.71329 4.28031 5.80084 4.24548C5.89968 4.2065 6.0203 4.21066 6.16933 4.25859C6.38761 4.32855 6.66817 4.35092 6.93936 4.37266C7.29969 4.40141 7.64171 4.42857 7.88413 4.55764C8.12654 4.42857 8.46856 4.40141 8.82889 4.37266C9.10008 4.35092 9.38102 4.32855 9.59894 4.25859C9.74795 4.21066 9.86897 4.2065 9.96741 4.24548C10.055 4.28031 10.1184 4.3474 10.155 4.44518C10.2052 4.57809 10.2098 4.72058 10.2141 4.8583C10.2203 5.05511 10.2266 5.24105 10.3639 5.36822C10.4522 5.45001 10.4997 5.64331 10.5234 5.8676C10.5593 5.70529 10.5904 5.51966 10.6172 5.31134C10.7219 4.49182 10.5203 3.83365 10.0176 3.35504C9.50126 2.863 8.8032 2.62401 7.88374 2.62401H7.88452Z" fill="black"/>
</g>
</g>
<defs>
<linearGradient id="paint0_linear_8_49" x1="16" y1="7" x2="74" y2="7" gradientUnits="userSpaceOnUse">
<stop stop-color="#D09E72"/>
<stop offset="1" stop-color="#FBD38D"/>
</linearGradient>
<clipPath id="clip0_8_49">
<rect x="1" y="1" width="13" height="13" rx="6.5" fill="white"/>
</clipPath>
</defs>
</svg>
