<svg width="30" height="30" viewBox="0 0 30 30" fill="none" xmlns="http://www.w3.org/2000/svg">
<path d="M15.624 23H14.776C11.5824 23 9.9848 23 8.992 22.0624C8 21.1256 8 19.6168 8 16.6V13.4C8 10.3832 8 8.8744 8.992 7.9376C9.9848 7 11.5824 7 14.776 7H15.624C18.8184 7 20.4152 7 21.408 7.9376C22.4 8.8744 22.4 10.3832 22.4 13.4V13.8M12 11H18.4M12 15H16" stroke="#FBD38D" stroke-width="1.5" stroke-linecap="round" stroke-linejoin="round"/>
<path d="M20.8 23V21.9712C20.3651 21.9743 19.936 21.8717 19.5495 21.6725C19.163 21.4732 18.8306 21.1832 18.5808 20.8272M20.8 21.9704C21.2349 21.9734 21.664 21.8709 22.0505 21.6717C22.437 21.4724 22.7694 21.1824 23.0192 20.8264M20.8 16.828C21.7256 16.828 22.5408 17.2824 23.0192 17.972C23.3107 18.3906 23.4669 18.8892 23.4669 19.3992C23.4669 19.9092 23.3107 20.407 23.0192 20.8256L24 21.456M18.5808 17.9736C18.8306 17.6176 19.163 17.3276 19.5495 17.1283C19.936 16.9291 20.3651 16.8266 20.8 16.8296V15.8M24 17.3432L23.0192 17.9736M17.6 21.456L18.5808 20.8256C18.2893 20.407 18.1331 19.9092 18.1331 19.3992C18.1331 18.8892 18.2893 18.3914 18.5808 17.9728M17.6 17.344L18.5808 17.9744" stroke="#FBD38D" stroke-width="1.5" stroke-linecap="round" stroke-linejoin="round"/>
<circle cx="15" cy="15" r="14.4" stroke="#FBD38D" stroke-width="1.2"/>
</svg>
