<svg width="80" height="80" viewBox="0 0 80 80" fill="none" xmlns="http://www.w3.org/2000/svg">
<circle cx="40" cy="40" r="38" stroke="#fbd38d" stroke-width="4"/>
<path d="M21.875 60H39.375C39.5408 60 39.6997 59.9342 39.8169 59.8169C39.9342 59.6997 40 59.5408 40 59.375C40 59.2092 39.9342 59.0503 39.8169 58.9331C39.6997 58.8158 39.5408 58.75 39.375 58.75H21.875C21.7092 58.75 21.5503 58.6842 21.4331 58.5669C21.3158 58.4497 21.25 58.2908 21.25 58.125V21.875C21.25 21.7092 21.3158 21.5503 21.4331 21.4331C21.5503 21.3158 21.7092 21.25 21.875 21.25H48.125C48.2908 21.25 48.4497 21.3158 48.5669 21.4331C48.6842 21.5503 48.75 21.7092 48.75 21.875V28.125C48.75 28.2908 48.8158 28.4497 48.9331 28.5669C49.0503 28.6842 49.2092 28.75 49.375 28.75C49.5408 28.75 49.6997 28.6842 49.8169 28.5669C49.9342 28.4497 50 28.2908 50 28.125V21.875C50 20.8412 49.1588 20 48.125 20H21.875C20.8412 20 20 20.8412 20 21.875V58.125C20 59.1588 20.8412 60 21.875 60Z" fill="#EAB308"/>
<path d="M42.5 33.125V58.125C42.5 59.1588 43.3412 60 44.375 60H58.125C59.1588 60 60 59.1588 60 58.125V33.125C60 32.0912 59.1588 31.25 58.125 31.25H44.375C43.3412 31.25 42.5 32.0912 42.5 33.125ZM58.75 33.125V58.125C58.75 58.2908 58.6842 58.4497 58.5669 58.5669C58.4497 58.6842 58.2908 58.75 58.125 58.75H44.375C44.2092 58.75 44.0503 58.6842 43.9331 58.5669C43.8158 58.4497 43.75 58.2908 43.75 58.125V33.125C43.75 32.9592 43.8158 32.8003 43.9331 32.6831C44.0503 32.5658 44.2092 32.5 44.375 32.5H58.125C58.2908 32.5 58.4497 32.5658 58.5669 32.6831C58.6842 32.8003 58.75 32.9592 58.75 33.125Z" fill="#EAB308"/>
<path d="M35 56.25C35.6904 56.25 36.25 55.6904 36.25 55C36.25 54.3096 35.6904 53.75 35 53.75C34.3096 53.75 33.75 54.3096 33.75 55C33.75 55.6904 34.3096 56.25 35 56.25Z" fill="#fbd38d"/>
<path d="M51.25 56.25C51.9404 56.25 52.5 55.6904 52.5 55C52.5 54.3096 51.9404 53.75 51.25 53.75C50.5596 53.75 50 54.3096 50 55C50 55.6904 50.5596 56.25 51.25 56.25Z" fill="#fbd38d"/>
</svg>
