<svg width="36" height="36" viewBox="0 0 36 36" fill="none" xmlns="http://www.w3.org/2000/svg">
<mask id="mask0_3_14" style="mask-type:luminance" maskUnits="userSpaceOnUse" x="9" y="10" width="17" height="17">
<path d="M9 10H26V27H9V10Z" fill="white"/>
</mask>
<g mask="url(#mask0_3_14)">
<path fill-rule="evenodd" clip-rule="evenodd" d="M21.7447 10.7087C21.7363 10.6022 21.7066 10.4985 21.6573 10.4037C21.608 10.3089 21.5402 10.2251 21.4579 10.157C21.3755 10.089 21.2804 10.0382 21.178 10.0077C21.0756 9.97713 20.9682 9.9675 20.862 9.97933C20.7559 9.99115 20.6532 10.0242 20.5601 10.0765C20.4669 10.1288 20.3853 10.1993 20.3199 10.2838C20.2546 10.3683 20.2069 10.465 20.1797 10.5683C20.1525 10.6716 20.1463 10.7793 20.1616 10.8851L20.8894 17.4375H19.9682C18.2257 17.4375 16.8912 18.9771 16.5714 20.6887C16.3257 21.9624 15.8962 23.1936 15.2964 24.3437C14.7736 25.351 14.3125 25.9375 14.3125 25.9375H23.3438C23.3438 25.9375 25.5537 24.0951 25.9872 20.1044C26.1487 18.5999 24.8419 17.4375 23.331 17.4375H22.4937L21.7447 10.7087ZM12.9844 12.6562C12.773 12.6562 12.5703 12.7402 12.4209 12.8896C12.2715 13.0391 12.1875 13.2418 12.1875 13.4531C12.1875 13.6645 12.2715 13.8671 12.4209 14.0166C12.5703 14.166 12.773 14.25 12.9844 14.25H17.7656C17.977 14.25 18.1797 14.166 18.3291 14.0166C18.4785 13.8671 18.5625 13.6645 18.5625 13.4531C18.5625 13.2418 18.4785 13.0391 18.3291 12.8896C18.1797 12.7402 17.977 12.6562 17.7656 12.6562H12.9844ZM9.79688 16.375C9.58553 16.375 9.38284 16.4589 9.2334 16.6084C9.08396 16.7578 9 16.9605 9 17.1719C9 17.3832 9.08396 17.5859 9.2334 17.7353C9.38284 17.8848 9.58553 17.9687 9.79688 17.9687H15.6406C15.852 17.9687 16.0547 17.8848 16.2041 17.7353C16.3535 17.5859 16.4375 17.3832 16.4375 17.1719C16.4375 16.9605 16.3535 16.7578 16.2041 16.6084C16.0547 16.4589 15.852 16.375 15.6406 16.375H9.79688ZM10.0625 20.8906C10.0625 20.6793 10.1465 20.4766 10.2959 20.3271C10.4453 20.1777 10.648 20.0937 10.8594 20.0937H13.5156C13.727 20.0937 13.9297 20.1777 14.0791 20.3271C14.2285 20.4766 14.3125 20.6793 14.3125 20.8906C14.3125 21.102 14.2285 21.3046 14.0791 21.4541C13.9297 21.6035 13.727 21.6875 13.5156 21.6875H10.8594C10.648 21.6875 10.4453 21.6035 10.2959 21.4541C10.1465 21.3046 10.0625 21.102 10.0625 20.8906ZM17.0676 24.3437C17.4851 23.4236 17.8963 22.2825 18.1386 20.9809C18.3702 19.7399 19.2489 19.0312 19.9671 19.0312H23.3321C23.6848 19.0312 23.9887 19.1694 24.1789 19.3532C24.26 19.4245 24.3227 19.5144 24.3616 19.6153C24.4005 19.7161 24.4143 19.8249 24.402 19.9322C24.2161 21.6556 23.6497 22.8849 23.1557 23.6659C23.0074 23.9023 22.8438 24.1287 22.6659 24.3437H21.6044C22.1771 23.5936 22.5469 22.5077 22.5469 21.4219H21.75C21.3771 22.7277 20.611 23.6404 19.4529 24.3437H17.0676Z" fill="#A855F7"/>
</g>
<circle cx="18" cy="18" r="16.75" stroke="#A855F7" stroke-width="1.5"/>
</svg>
