<svg width="80" height="80" viewBox="0 0 80 80" fill="none" xmlns="http://www.w3.org/2000/svg">
<circle cx="40" cy="40" r="38" stroke="#EAB308" stroke-width="4"/>
<path d="M55.8333 23.3333H24.1667C23.7067 23.3333 23.3333 23.74 23.3333 24.2417V32.425C23.3333 32.9267 23.7067 33.3333 24.1667 33.3333H55.8333C56.2933 33.3333 56.6667 32.9267 56.6667 32.425V24.2417C56.6667 23.7408 56.2933 23.3333 55.8333 23.3333ZM55.8333 46.6667H24.1667C23.7067 46.6667 23.3333 47.0733 23.3333 47.575V55.7583C23.3333 56.26 23.7067 56.6667 24.1667 56.6667H55.8333C56.2933 56.6667 56.6667 56.26 56.6667 55.7583V47.575C56.6667 47.0733 56.2933 46.6667 55.8333 46.6667Z" stroke="#EAB308" stroke-width="4" stroke-linejoin="round"/>
<path d="M31.6667 33.3333V40.0067L48.3333 40.015V46.6667M35 51.6667H45M35 28.3333H45" stroke="#EAB308" stroke-width="4" stroke-linecap="round" stroke-linejoin="round"/>
</svg>
