<svg width="80" height="80" viewBox="0 0 80 80" fill="none" xmlns="http://www.w3.org/2000/svg">
<circle cx="40" cy="40" r="38" stroke="#fbd38d" stroke-width="4"/>
<path d="M19.0615 48.22C17.9015 48.22 16.8748 47.9733 15.9815 47.48C15.1015 46.9867 14.4082 46.3067 13.9015 45.44C13.4082 44.56 13.1615 43.56 13.1615 42.44V33.88H16.3215V42.62C16.3215 43.18 16.4415 43.6667 16.6815 44.08C16.9215 44.4933 17.2482 44.8133 17.6615 45.04C18.0882 45.2533 18.5548 45.36 19.0615 45.36C19.5948 45.36 20.0615 45.2533 20.4615 45.04C20.8615 44.8133 21.1748 44.5 21.4015 44.1C21.6415 43.6867 21.7615 43.2 21.7615 42.64V33.88H24.9215V42.46C24.9215 43.58 24.6748 44.5733 24.1815 45.44C23.6882 46.3067 23.0015 46.9867 22.1215 47.48C21.2415 47.9733 20.2215 48.22 19.0615 48.22ZM27.4245 48V33.88H30.5645V48H27.4245ZM32.3745 49.1L37.2745 32.9H39.9345L35.0345 49.1H32.3745ZM47.0302 48.22C45.8702 48.22 44.8436 47.9733 43.9502 47.48C43.0702 46.9867 42.3769 46.3067 41.8702 45.44C41.3769 44.56 41.1302 43.56 41.1302 42.44V33.88H44.2902V42.62C44.2902 43.18 44.4102 43.6667 44.6502 44.08C44.8902 44.4933 45.2169 44.8133 45.6302 45.04C46.0569 45.2533 46.5236 45.36 47.0302 45.36C47.5636 45.36 48.0302 45.2533 48.4302 45.04C48.8302 44.8133 49.1436 44.5 49.3702 44.1C49.6102 43.6867 49.7302 43.2 49.7302 42.64V33.88H52.8902V42.46C52.8902 43.58 52.6436 44.5733 52.1502 45.44C51.6569 46.3067 50.9702 46.9867 50.0902 47.48C49.2102 47.9733 48.1902 48.22 47.0302 48.22ZM64.0016 48L60.0616 41.7H59.6816L54.2416 33.88H57.9816L61.8616 39.8H62.2416L67.6816 48H64.0016ZM53.9816 48L59.2016 40.44L61.6216 41.8L57.5616 48H53.9816ZM62.3616 41.34L59.9416 39.98L63.8616 33.88H67.4416L62.3616 41.34Z" fill="#fbd38d"/>
</svg>
