<svg width="32" height="32" viewBox="0 0 32 32" fill="none" xmlns="http://www.w3.org/2000/svg">
<path d="M8.125 12.9408H25.125M17.5197 16.5197H21.0987M17.5197 20.0987H19.3092M12.1513 10.2566H12.1594M15.7303 10.2566H15.7383M13.9408 12.9408V24.125M8.125 15.625C8.125 11.6184 8.125 9.61416 9.36958 8.36958C10.6142 7.125 12.6175 7.125 16.625 7.125C20.6316 7.125 22.6358 7.125 23.8804 8.36958C25.125 9.61416 25.125 11.6175 25.125 15.625C25.125 19.6316 25.125 21.6358 23.8804 22.8804C22.6358 24.125 20.6325 24.125 16.625 24.125C12.6184 24.125 10.6142 24.125 9.36958 22.8804C8.125 21.6358 8.125 19.6325 8.125 15.625Z" stroke="#fbd38d" stroke-width="1.5" stroke-linecap="round" stroke-linejoin="round"/>
<circle cx="16" cy="16" r="15.25" stroke="#fbd38d" stroke-width="1.5"/>
</svg>
